<svg width="1153" height="562" viewBox="0 0 1153 562" fill="none" xmlns="http://www.w3.org/2000/svg">
<mask id="mask0_236_8" style="mask-type:alpha" maskUnits="userSpaceOnUse" x="0" y="0" width="1714" height="2160">
<path d="M1714 0H0V2160H1714V0Z" fill="#CADB7F"/>
</mask>
<g mask="url(#mask0_236_8)">
<path d="M261.51 166.334C264.971 163.725 247.45 127.628 241.805 116.288C251.658 108.728 263.054 100.902 275.622 93.2356C281.48 104.576 298.415 136.36 302.569 133.006C306.723 129.598 296.551 94.9925 292.93 83.12C296.019 81.3631 299.214 79.6594 302.409 77.9025C307.415 90.5736 323.711 130.983 327.12 127.149C330.528 123.316 315.83 85.0899 311.143 73.3239C323.019 67.2546 335.374 61.3982 348.102 55.9677C352.149 64.9652 367.487 97.7077 373.398 92.7564C379.256 87.9116 370.948 56.8196 368.392 47.7688C371.108 46.704 373.824 45.7457 376.593 44.7341C380.161 53.9446 392.889 85.8885 396.67 82.3214C400.345 78.8608 393.422 49.7387 390.972 39.7828C402.262 36.0561 413.605 32.8084 424.842 30.0932C428.25 39.8893 437.197 64.3796 440.552 62.6227C443.907 60.8658 436.611 37.1209 433.682 28.0701C437.037 27.3247 440.446 26.5794 443.748 25.9938C445.825 35.8431 451.203 58.7894 455.943 55.4886C460.576 52.2409 458.18 32.5422 456.848 23.9174C457.807 23.7577 458.819 23.598 459.777 23.4382C472.878 21.7346 486.405 20.723 499.825 20.936C500.251 27.165 501.423 38.8778 504.245 37.9727C507.014 37.1209 508.452 26.6859 508.985 21.2554C532.949 22.6929 556.222 28.4428 575.819 41.7527C552.6 50.2711 544.506 64.5393 535.026 81.4163C526.346 76.7312 506.588 66.6157 503.872 70.5022C500.996 74.5484 519.476 89.775 526.665 95.4716C520.168 105.587 511.647 116.182 502.328 126.297C492.369 118.524 461.162 94.886 455.836 99.2517C450.511 103.564 477.671 132.207 487.044 141.843C480.067 148.445 473.144 154.568 466.647 159.626C463.239 162.288 460.044 164.737 456.902 167.132C446.89 158.082 416.108 130.716 412.647 132.739C409.132 134.763 439.807 164.204 449.126 173.042C445.292 175.917 441.564 178.685 437.996 181.294C430.487 173.415 404.392 146.795 397.895 150.894C391.664 154.781 413.339 182.998 421.434 193.06C412.38 199.342 403.434 205.305 393.528 211.907C383.942 203.282 355.611 178.313 351.617 180.921C347.463 183.637 376.38 210.15 384.741 217.657C381.226 219.946 377.712 222.129 374.197 224.259C369.777 218.988 351.35 197.692 347.037 199.822C343.149 201.791 357.688 222.129 363.759 230.381C353.268 236.397 342.777 241.828 332.445 246.726C322.007 236.717 297.563 214.25 292.078 216.805C286.593 219.414 305.445 244.383 313.806 254.978C309.332 256.841 304.966 258.545 300.599 260.195C294.847 251.571 279.35 229.21 274.184 230.115C269.019 231.02 283.823 254.765 289.841 264.082C237.013 282.024 192.971 283.461 175.982 268.394C149.249 244.649 155.053 215.421 172.468 188.002C178.059 192.687 188.71 200.993 190.628 198.118C192.491 195.296 185.462 182.678 181.201 175.544C183.864 172.084 186.687 168.676 189.562 165.322C194.728 173.255 213.9 202.324 216.935 198.437C219.971 194.551 204.367 163.086 199.787 154.142C205.912 147.806 212.196 141.79 218.32 136.253C222.367 142.695 235.628 163.193 238.344 161.01C240.9 158.933 230.569 137.478 226.415 129.066C228.758 127.043 230.995 125.126 233.178 123.263C233.444 123.05 233.764 122.784 234.03 122.571C239.515 133.325 258.101 168.942 261.616 166.281L261.51 166.334Z" fill="#76AB9F"/>
<path d="M504.139 37.9725C506.908 37.1206 508.346 26.6856 508.878 21.2552C532.843 22.6927 556.115 28.4426 575.713 41.7525C480.76 38.8775 366.049 137.211 322.114 170.486C284.09 199.289 196.006 251.837 172.894 265.519C149.621 242.307 155.533 214.303 172.308 188.002C177.9 192.687 188.551 200.993 190.468 198.118C192.332 195.296 185.302 182.678 181.042 175.544C183.704 172.083 186.527 168.676 189.403 165.322C194.568 173.255 213.74 202.324 216.776 198.437C219.811 194.551 204.208 163.086 199.628 154.142C205.752 147.806 212.036 141.79 218.16 136.253C222.208 142.695 235.468 163.192 238.184 161.01C240.74 158.933 230.409 137.478 226.255 129.066C228.598 127.043 230.835 125.126 233.018 123.263C233.285 123.05 233.604 122.783 233.87 122.57C239.356 133.325 257.942 168.942 261.456 166.28C264.918 163.672 247.397 127.575 241.752 116.235C251.604 108.675 263.001 100.849 275.569 93.1821C281.427 104.522 298.362 136.306 302.516 132.952C306.67 129.545 296.498 94.939 292.877 83.0665C295.966 81.3096 299.161 79.606 302.356 77.849C307.362 90.5201 323.658 130.929 327.066 127.096C330.475 123.263 315.776 85.0364 311.09 73.2704C322.966 67.2011 335.321 61.3447 348.049 55.9143C352.096 64.9118 367.433 97.6542 373.345 92.7029C379.203 87.8581 370.895 56.7661 368.339 47.7153C371.055 46.6505 373.771 45.6922 376.54 44.6807C380.108 53.8911 392.836 85.835 396.617 82.2679C400.292 78.8074 393.369 49.6852 390.919 39.7294C402.209 36.0026 413.552 32.755 424.789 30.0397C428.197 39.8359 437.144 64.3261 440.499 62.5692C443.854 60.8123 436.558 37.0674 433.629 28.0166C436.984 27.2713 440.392 26.5259 443.694 25.9403C445.771 35.7896 451.15 58.736 455.89 55.4351C460.523 52.1875 458.126 32.4888 456.795 23.8639C457.754 23.7042 458.765 23.5445 459.724 23.3848C472.825 21.6811 486.351 20.6695 499.772 20.8825C500.198 27.1116 501.369 38.8243 504.192 37.9192L504.139 37.9725Z" fill="#609790"/>
<path d="M534.494 47.1294C534.494 47.1294 532.151 47.5553 527.784 48.4072C523.577 49.472 517.292 51.1224 509.624 54.1571C501.902 57.032 492.742 61.2379 482.464 66.5087C472.186 71.7794 460.789 78.115 448.647 85.6218C424.363 100.529 396.83 119.269 368.179 140.565C353.747 151.107 338.782 162.021 323.605 173.095C308.374 184.169 292.824 195.189 277.22 206.21C261.563 217.124 245.853 228.038 230.196 238.473C222.421 243.797 214.592 248.855 206.817 253.913C199.095 258.97 191.426 263.868 183.758 268.607C176.196 273.398 168.633 277.977 161.178 282.396C153.775 286.868 146.426 291.074 139.237 295.067C124.858 303.159 110.958 310.347 97.911 316.523C84.8635 322.698 72.6149 327.863 61.6445 332.122C50.6207 336.275 40.9283 339.735 32.8336 342.078C24.7921 344.686 18.3483 346.337 13.9814 347.455C9.61454 348.626 7.27128 349.265 7.27128 349.265C4.18247 350.064 1.04051 348.253 0.188456 345.166C-0.610372 342.078 1.20024 338.937 4.28898 338.085L4.50205 338.031C4.50205 338.031 6.79203 337.446 11.0524 336.328C15.3128 335.21 21.5968 333.613 29.4253 331.11C37.3602 328.821 46.7863 325.467 57.5438 321.474C68.248 317.374 80.2303 312.317 93.0647 306.301C105.846 300.231 119.639 293.417 133.911 285.537C141.047 281.651 148.396 277.604 155.746 273.239C163.148 268.979 170.71 264.507 178.272 259.822C185.888 255.19 193.61 250.452 201.332 245.501C209.107 240.603 216.935 235.598 224.711 230.434C240.421 220.212 256.184 209.511 271.894 198.756C287.605 187.949 303.261 177.088 318.546 166.227C333.83 155.313 348.901 144.611 363.439 134.23C392.623 113.413 420.529 94.8322 445.452 80.4575C457.86 73.2169 469.576 67.1476 480.121 62.0898C490.665 56.9788 500.198 53.1987 508.186 50.5368C516.121 47.7683 522.671 46.3308 527.145 45.3725C531.565 44.7336 533.908 44.3609 533.908 44.3609C534.707 44.2545 535.399 44.7869 535.559 45.5855C535.665 46.3308 535.133 47.0762 534.387 47.1827L534.494 47.1294Z" fill="#569188"/>
<path d="M80.132 136.955C92.9664 141.268 109.475 166.77 114.215 153.353C118.209 142.066 64.5815 123.433 64.9543 115.127C65.3271 106.822 83.9663 78.7111 89.1853 79.6694C94.4042 80.6277 96.9604 92.9261 110.86 99.7941C127.316 107.887 135.304 128.81 140.629 123.007C145.955 117.203 137.434 107.833 129.872 99.6343C122.789 91.9678 99.996 69.7668 103.724 64.2299C107.452 58.693 130.298 43.0937 134.186 44.265C138.073 45.4363 143.771 56.1907 148.671 62.9521C154.689 71.2575 152.505 90.7433 159.908 88.7202C167.31 86.6971 162.943 76.1556 159.641 68.2229C156.553 60.8226 144.623 42.4548 149.203 37.7165C153.783 32.9781 174.925 27.6542 178.28 28.7722C181.636 29.9435 180.464 54.8597 184.724 51.5588C188.559 48.5774 184.724 37.0776 184.298 27.5477C194.576 25.6843 203.364 25.1519 209.009 26.2699C216.571 27.7607 225.411 36.7049 233.932 48.8436C226.742 50.92 206.026 57.6282 205.334 65.1882C204.535 73.6001 235.902 55.2856 240.269 58.5332C244.636 61.7809 253.743 76.7412 254.275 85.1531C254.541 89.2526 243.944 96.2802 230.044 99.7408C215.452 103.361 197.505 103.574 194.204 111.56C187.547 127.745 221.47 109.005 240.429 103.681C249.748 101.072 257.95 98.9955 261.358 102.722C264.766 106.449 264.979 113.903 265.938 118.588C267.056 123.912 269.08 136.476 266.577 141.694C264.074 146.911 244.316 148.828 225.251 149.147C198.091 149.626 185.843 138.712 179.772 146.379C173.701 154.045 200.914 167.462 220.192 166.716C236.009 166.078 262.104 159.795 262.743 165.598C263.382 171.402 256.725 197.702 246.5 207.711C236.275 217.72 181.05 174.809 176.097 183.434C170.825 192.697 201.659 202.707 213.056 210.32C220.725 215.431 230.63 221.713 232.387 226.558C234.145 231.403 217.423 243.009 209.168 243.115C200.914 243.169 173.221 207.818 164.221 215.697C153.996 224.588 177.908 233.745 185.31 240.4C188.346 243.169 190.636 246.576 192.233 249.611C186.428 251.155 180.517 252.113 174.553 252.273C147.872 252.805 127.156 226.718 127.156 226.718C127.156 226.718 105.801 230.87 90.8894 224.695C82.4751 221.234 69.3212 211.385 60.3212 196.318C64.7946 196.052 69.5342 194.987 74.1674 193.762C84.8183 190.887 102.925 194.721 98.3983 186.255C94.1379 178.323 57.9247 181.943 51.8004 174.436C50.469 172.786 50.9483 169.858 50.7353 167.462C49.617 155.217 54.5163 128.49 59.0963 127.159C64.475 125.562 66.3922 132.324 80.132 136.902L80.132 136.955Z" fill="#76AB9F"/>
<path d="M60.3743 196.424C64.8477 196.158 69.5874 195.093 74.2206 193.869C84.8716 190.994 102.978 194.827 98.4515 186.362C94.1911 178.429 57.9778 182.05 51.8535 174.543C50.5222 172.892 51.0015 169.964 50.7884 167.568C49.6701 155.323 54.5696 128.597 59.1495 127.266C64.5282 125.669 66.4454 132.43 80.1851 137.009C93.0195 141.321 109.528 166.823 114.268 153.407C118.262 142.12 64.6347 123.486 65.0075 115.181C65.3803 106.875 84.0195 78.7646 89.2384 79.7229C94.4574 80.6812 97.0137 92.9796 110.913 99.8475C127.369 107.94 135.357 128.863 140.683 123.06C146.008 117.257 137.487 107.887 129.925 99.6878C122.842 92.0213 100.049 69.8203 103.777 64.2834C107.505 58.7464 130.351 43.1472 134.239 44.3185C138.126 45.4897 143.825 56.2442 148.724 63.0056C154.742 71.311 152.558 90.7968 159.961 88.7737C167.363 86.7505 162.996 76.2091 159.694 68.2763C156.606 60.876 144.677 42.5083 149.257 37.77C153.837 33.0849 174.979 27.7076 178.334 28.8257C181.689 29.9437 180.517 54.9132 184.778 51.6123C188.612 48.6309 184.778 37.1311 184.351 27.6012C194.63 25.7378 203.417 25.2054 209.062 26.3234C210.766 26.6428 212.577 27.4414 214.387 28.5062C194.843 56.883 169.493 115.127 159.002 142.226C148.085 170.497 148.351 178.589 127.316 226.878C127.316 226.878 105.96 231.03 91.0491 224.854C82.6348 221.394 69.4809 211.545 60.4809 196.478L60.3743 196.424Z" fill="#609790"/>
<path d="M209.594 38.8877C209.594 38.8877 199.635 55.8711 187.227 82.7572C180.996 96.1736 174.233 112.039 167.736 129.289C161.345 146.538 154.848 165.385 147.765 183.86C144.251 193.123 140.576 202.387 136.848 211.438C133.12 220.488 129.233 229.326 125.345 237.845C121.404 246.31 117.463 254.455 113.522 262.069C111.499 265.849 109.528 269.522 107.611 273.089C105.587 276.603 103.617 280.011 101.753 283.258C97.8123 289.7 94.191 295.557 90.6229 300.561C87.2146 305.672 83.8063 309.878 81.1435 313.392C78.4275 316.906 75.9778 319.461 74.4867 321.271C72.9423 323.082 72.0902 324.04 72.0902 324.04C70.1198 326.329 66.6583 326.542 64.3683 324.572C62.0783 322.602 61.8653 319.142 63.8357 316.852L64.102 316.586C64.102 316.586 64.9009 315.681 66.392 314.031C67.8299 312.327 70.1731 309.985 72.7826 306.684C75.392 303.383 78.6938 299.443 82.0489 294.545C85.5637 289.807 89.185 284.163 93.0726 277.987C94.9366 274.846 96.907 271.599 98.9307 268.191C100.848 264.731 102.872 261.164 104.895 257.49C108.889 250.09 112.883 242.157 116.878 233.852C120.818 225.546 124.812 216.868 128.647 207.977C132.481 199.086 136.262 189.982 139.937 180.825C147.393 162.51 153.89 143.983 160.919 126.627C167.949 109.324 175.192 93.5117 181.795 80.1485C195.002 53.4221 205.494 36.4386 205.494 36.4386C206.186 35.3206 207.677 34.9479 208.795 35.64C209.914 36.3322 210.286 37.7696 209.594 38.8877Z" fill="#569188"/>
<path d="M1055.81 112.519L1058.48 110.762C1064.76 120.132 1070.3 126.361 1074.98 129.183L1073.33 131.898C1068.22 128.81 1062.31 122.315 1055.81 112.519Z" fill="#569188"/>
<path d="M1055.81 156.814C1056.24 155.962 1056.77 154.951 1057.36 153.833C1059.65 149.573 1062.74 143.77 1062.9 138.5L1066.09 138.606C1065.88 144.622 1062.58 150.798 1060.18 155.323C1059.59 156.388 1059.11 157.346 1058.69 158.198L1055.81 156.814Z" fill="#569188"/>
<path d="M1040.9 115.553C1044.95 107.088 1049.95 94.6833 1046.97 84.7807L1050.06 83.8756C1053.36 94.843 1048.09 108.046 1043.78 116.937L1040.9 115.553Z" fill="#569188"/>
<path d="M1041.7 69.9267L1044.15 67.9036C1051.71 77.114 1063.32 84.4611 1067.64 87.2296C1068.49 87.762 1069.07 88.1347 1069.39 88.4009L1067.53 91.0096C1067.21 90.7967 1066.68 90.424 1065.88 89.9448C1061.4 87.1231 1049.53 79.6163 1041.59 69.9799L1041.7 69.9267Z" fill="#569188"/>
<path d="M1024.39 75.0911C1029.66 70.406 1035.95 59.9178 1035.95 53.8484L1035.95 53.7419L1039.14 53.7419C1039.14 53.7419 1039.14 53.7419 1039.14 53.8484C1039.14 61.515 1031.8 72.7485 1026.52 77.4336L1024.39 75.0378L1024.39 75.0911Z" fill="#569188"/>
<path d="M1021.46 16.1014L1024.02 14.1848C1030.14 22.5435 1042.66 28.8258 1046.39 30.5827L1045.06 33.4576C1041.17 31.6475 1028.07 25.0457 1021.46 16.1014Z" fill="#569188"/>
<path d="M1012.73 29.7841C1013.16 27.6013 1013.79 25.4717 1014.43 23.1824C1016.08 17.4857 1017.79 11.5761 1016.46 4.76144L1019.6 4.12256C1021.09 11.6826 1019.23 18.2311 1017.52 24.0342C1016.88 26.2703 1016.3 28.3467 1015.87 30.3698L1012.73 29.7841Z" fill="#569188"/>
<path d="M980.351 -81.5404L983.28 -82.7649C987.487 -72.7026 992.014 -62.0014 996.753 -50.8743C1028.81 24.6197 1068.65 118.641 1075.52 189.237L1072.32 189.556C1065.51 119.386 1025.78 25.6845 993.824 -49.6498C989.085 -60.7769 984.558 -71.4781 980.351 -81.5404Z" fill="#569188"/>
<path d="M1120.52 90.9032C1119.19 92.7666 1106.83 87.3361 1085.42 75.1975C1065.98 64.2301 1050.75 49.2697 1041.59 28.9321C1060.61 33.2978 1075.25 44.4249 1090.75 57.2557C1105.07 69.1281 1121.85 89.0398 1120.57 90.9032L1120.52 90.9032Z" fill="#609790"/>
<path d="M1016.72 206.221C1014.75 205.848 1015.29 184.552 1018.64 160.647C1021.68 138.979 1029.5 127.479 1043.56 110.921C1045.91 129.449 1041.22 147.018 1035.36 166.025C1029.98 183.594 1018.69 206.646 1016.72 206.274L1016.72 206.221Z" fill="#76AB9F"/>
<path d="M1067.9 20.4669C1058.1 16.5272 1034.24 3.32374 1031.85 -7.64365C1045.22 -15.7361 1062.58 -2.37291 1072.96 5.50657C1086.17 15.5156 1105.34 22.0109 1117.38 33.1913C1103.05 33.7769 1080.79 25.6312 1067.9 20.4669Z" fill="#76AB9F"/>
<path d="M1092.72 166.397C1084.89 159.263 1067.26 138.499 1068.91 127.372C1084.25 124.497 1095.81 143.131 1102.73 154.152C1111.57 168.154 1127.23 181.038 1134.52 195.732C1120.94 191.26 1102.94 175.767 1092.72 166.397Z" fill="#76AB9F"/>
<path d="M1087.13 219.211C1086.97 207.605 1078.93 176.246 1072 173.797C1067.32 177.311 1066.73 197.542 1069.13 214.685C1071.52 231.616 1071.68 254.509 1078.93 269.522C1085.64 253.338 1087.39 234.491 1087.13 219.211Z" fill="#609790"/>
<path d="M988.872 66.3594C991.215 55.0725 1003.89 26.9619 1015.45 25.7374C1026.95 43.0936 1012.84 63.3247 1006.29 74.718C997.925 89.1992 994.623 111.4 984.771 124.284C981.309 106.928 985.836 81.2665 988.925 66.4126L988.872 66.3594Z" fill="#609790"/>
<path d="M1008.68 114.861C1002.82 121.675 995.102 128.171 989.085 135.145C984.026 140.948 977.156 150.957 969.38 152.448C973.321 139.671 980.67 123.486 987.434 111.666C996.487 95.801 1012.04 81.8521 1027.64 72.056C1024.87 87.3358 1019.76 102.03 1008.68 114.914L1008.68 114.861Z" fill="#76AB9F"/>
<path d="M995.955 -15.3101C995.688 0.874826 991.641 16.9532 984.984 32.233C981.416 40.432 976.517 48.205 973.375 56.6701C971.351 62.1538 970.446 68.5958 967.41 73.3874C960.167 41.337 975.132 7.21036 995.955 -15.3101Z" fill="#76AB9F"/>
<path d="M1059.7 152.448C1059.17 168.633 1054.8 184.605 1047.88 199.778C1044.15 207.924 1039.14 215.591 1035.84 224.002C1033.71 229.486 1032.7 235.875 1029.61 240.613C1022.95 208.456 1038.51 174.596 1059.7 152.448Z" fill="#609790"/>
<path d="M1064.28 87.5488C1081.22 90.0511 1097.4 96.4931 1112.42 105.491C1120.46 110.335 1127.81 116.458 1136.23 120.877C1141.66 123.752 1148.26 125.562 1152.84 129.342C1118.17 132.43 1086.43 110.069 1064.28 87.5488Z" fill="#76AB9F"/>
<path d="M605.437 143.078C598.887 138.819 586.478 129.396 590.153 123.699C593.881 118.002 607.088 128.065 609.804 134.56C607.94 128.171 602.668 110.815 608.952 108.685C615.236 106.556 618.378 118.268 618.91 125.615C621.254 118.641 631.692 112.039 636.059 115.5C639.946 118.588 632.917 132.27 626.632 136.902C630.36 134.027 647.615 133.814 649.425 138.925C652.568 147.71 636.325 149.946 630.467 147.816C634.621 149.68 641.171 158.305 639.627 162.83C638.082 167.355 625.993 156.92 623.437 153.833C625.727 158.784 626.526 174.223 620.029 175.235C613.532 176.247 613.585 159.742 615.289 154.791C613.425 158.358 604.904 173.957 598.248 171.189C591.591 168.474 602.348 152.235 605.064 148.935C601.39 150.904 585.999 156.654 583.922 151.809C581.898 146.965 600.697 140.256 605.384 143.078L605.437 143.078Z" fill="#EBDFE1"/>
<path d="M608.899 143.078C609.165 147.444 612.893 150.638 617.1 150.212C621.307 149.786 624.662 147.071 624.396 142.705C624.129 138.34 621.254 136.423 617.1 135.784C613.159 135.199 608.632 138.712 608.899 143.078Z" fill="#FFA64D"/>
<path d="M1104.27 467.682C1104.54 467.043 1129.2 403.421 1117.69 319.143L1122.59 318.451C1134.26 404.114 1109.12 468.853 1108.85 469.492L1104.22 467.682L1104.27 467.682Z" fill="#76AB9F"/>
<path d="M1108.22 466.937C1098.1 463.582 1062.9 483.228 1069.98 494.515C1077.01 505.802 1086.75 498.348 1086.75 498.348C1086.75 498.348 1082.23 511.552 1093.09 515.385C1103.9 519.218 1107.04 504.843 1107.04 504.843C1107.04 504.843 1109.39 514.852 1118.92 514.107C1128.45 513.362 1124.56 472.367 1108.22 466.99L1108.22 466.937Z" fill="#FFEBAB"/>
<path d="M1094.69 469.013C1101.77 473.112 1109.39 474.816 1117.32 475.348C1117.32 475.348 1113.06 467.309 1108.06 465.978C1103.05 464.647 1094.69 469.066 1094.69 469.066L1094.69 469.013Z" fill="#76AB9F"/>
<path d="M1040.95 471.568C1041.33 471.036 1080.47 416.145 1119.51 341.769L1124.03 344.165C1084.78 418.914 1045.48 474.017 1045.11 474.549L1040.95 471.568Z" fill="#76AB9F"/>
<path d="M1043.03 470.663C1053.04 475.933 1064.71 515.703 1051.13 518.152C1037.55 520.602 1035.84 508.197 1035.84 508.197C1035.84 508.197 1029.51 520.602 1018.59 515.118C1007.67 509.634 1015.98 497.442 1015.98 497.442C1015.98 497.442 1006.92 502.553 1000.37 494.887C993.824 487.22 1026.9 462.091 1043.03 470.609L1043.03 470.663Z" fill="#EBDFE1"/>
<path d="M1051.55 482.216C1043.3 479.714 1036.37 475.189 1030.09 469.652C1030.09 469.652 1039.14 467.309 1043.88 470.131C1048.62 472.953 1051.55 482.216 1051.55 482.216Z" fill="#76AB9F"/>
<path d="M3.49806 386.917L4.08386 381.433C98.4513 391.07 168.428 361.255 169.12 360.936L171.357 365.994C170.665 366.313 99.41 396.713 3.55136 386.917L3.49806 386.917Z" fill="#76AB9F"/>
<path d="M168.375 365.408C164.274 354.227 184.831 314.351 197.718 321.804C210.553 329.258 202.564 340.332 202.564 340.332C202.564 340.332 217.103 334.795 221.789 346.72C226.476 358.646 210.553 362.692 210.553 362.692C210.553 362.692 221.789 364.928 221.31 375.576C220.831 386.224 175.032 383.403 168.428 365.408L168.375 365.408Z" fill="#FFEBAB"/>
<path d="M170.185 350.235C175.032 357.954 177.162 366.42 178.067 375.151C178.067 375.151 168.961 370.732 167.256 365.195C165.552 359.658 170.185 350.181 170.185 350.181L170.185 350.235Z" fill="#76AB9F"/>
</g>
</svg>
