<svg width="3839" height="1788" viewBox="0 0 3839 1788" fill="none" xmlns="http://www.w3.org/2000/svg">
<g opacity="0.5">
<mask id="mask0_1_1339" style="mask-type:alpha" maskUnits="userSpaceOnUse" x="0" y="0" width="3839" height="1788">
<path d="M3839 0H0V1787.35H3839V0Z" fill="#CADB7F"/>
</mask>
<g mask="url(#mask0_1_1339)">
<path d="M434.938 1874.34C468.186 1830.45 464.88 1706.68 511.905 1741.02C551.215 1769.67 413.997 1955.69 434.203 1982.69C454.593 2009.68 581.707 2061.29 597.138 2046.23C612.568 2031.17 592.729 1983.79 623.773 1928.88C660.511 1864.06 639.203 1775.18 670.431 1782.52C701.658 1789.87 694.494 1840.92 688.065 1885.73C682.003 1927.78 656.47 2054.86 681.636 2064.78C706.801 2074.69 819.588 2074.69 829.875 2061.84C840.161 2048.98 834.65 1999.77 835.569 1965.79C836.671 1923.92 784.503 1863.69 814.077 1853.41C843.651 1843.31 853.203 1888.85 860.367 1923.01C866.98 1954.96 869.185 2044.21 895.452 2049.53C921.72 2054.86 1005.12 2024.19 1013.75 2012.62C1022.38 2001.05 961.03 1919.88 982.889 1921.17C1002.73 1922.45 1016.32 1969.65 1036.71 2002.89C1075.47 1985.63 1106.15 1967.26 1122.68 1950.37C1144.54 1927.96 1153.91 1877.65 1154.64 1817.23C1125.62 1826.59 1040.57 1851.75 1020.91 1828.06C999.054 1801.62 1146.37 1791.15 1153.72 1770.22C1161.07 1749.28 1157.21 1678.03 1139.58 1648.46C1130.94 1633.96 1079.14 1634.88 1024.59 1655.08C967.276 1676.38 906.474 1716.96 877.083 1697.68C817.384 1658.75 974.623 1643.69 1050.49 1617.98C1087.78 1605.31 1120.11 1593.37 1123.05 1572.99C1125.99 1552.6 1109.45 1527.26 1101.92 1509.08C1093.47 1488.7 1071.43 1441.69 1051.04 1429.93C1030.65 1418.18 959.928 1457.11 895.085 1499.9C802.872 1560.68 786.707 1625.51 748.499 1613.57C710.292 1601.82 771.093 1494.02 837.59 1452.52C892.146 1418.36 994.462 1379.43 983.257 1358.31C972.052 1337.2 889.207 1264.29 831.712 1254.01C774.216 1243.91 687.514 1515.14 650.959 1497.33C612.016 1478.23 692.473 1373.92 713.23 1321.95C727.191 1287.06 745.928 1243.36 740.968 1222.97C735.825 1202.59 652.98 1202.04 624.875 1220.77C596.954 1239.5 585.198 1421.85 536.887 1416.34C482.147 1409.92 541.479 1324.34 551.031 1284.67C554.889 1268.33 554.705 1251.8 553.052 1237.66C530.09 1245.74 507.863 1256.03 487.657 1269.43C396.73 1328.93 387.178 1464.09 387.178 1464.09C387.178 1464.09 305.803 1499.17 269.799 1554.26C249.41 1585.29 227.918 1648.46 232.327 1719.9C247.94 1710.53 266.309 1703.19 284.862 1696.76C327.295 1681.89 379.28 1627.53 383.504 1666.28C387.362 1702.82 257.492 1773.71 254.186 1813.19C253.451 1821.82 261.901 1830.64 266.677 1839.08C291.108 1882.97 368.993 1961.39 387.362 1955.33C409.038 1948.16 400.037 1921.17 435.673 1874.34L434.938 1874.34Z" fill="#76AB9F"/>
<path d="M231.775 1720.08C247.389 1710.72 265.758 1703.37 284.311 1696.95C326.744 1682.07 378.729 1627.71 382.953 1666.46C386.811 1703.01 256.941 1773.89 253.635 1813.37C252.9 1822 261.35 1830.82 266.126 1839.27C290.557 1883.16 368.442 1961.57 386.811 1955.51C408.487 1948.35 399.486 1921.35 435.122 1874.52C468.37 1830.63 465.063 1706.86 512.088 1741.2C551.398 1769.85 414.181 1955.88 434.387 1982.87C454.777 2009.87 581.891 2061.47 597.321 2046.41C612.751 2031.35 592.913 1983.97 623.957 1929.07C660.695 1864.24 639.387 1775.36 670.614 1782.7C701.842 1790.05 694.678 1841.1 688.249 1885.91C682.187 1927.96 656.654 2055.04 681.819 2064.96C706.985 2074.88 819.771 2074.88 830.058 2062.02C840.345 2049.17 834.834 1999.95 835.753 1965.98C836.855 1924.11 784.686 1863.87 814.261 1853.59C843.835 1843.49 853.387 1889.03 860.551 1923.19C867.164 1955.14 869.368 2044.39 895.636 2049.72C921.904 2055.04 1005.3 2024.37 1013.93 2012.81C1022.57 2001.24 961.214 1920.07 983.073 1921.35C1002.91 1922.64 1016.51 1969.83 1036.89 2003.07C1075.65 1985.81 1106.33 1967.45 1122.86 1950.55C1127.82 1945.41 1132.05 1938.8 1135.72 1930.9C1004.75 1880.4 785.605 1742.86 688.249 1676.01C586.484 1606.23 568.849 1578.31 387.178 1464.46C387.178 1464.46 305.803 1499.53 269.799 1554.62C249.41 1585.66 227.918 1648.83 232.326 1720.27L231.775 1720.08Z" fill="#609790"/>
<path d="M1087.78 1922.82C1087.78 1922.82 1013.57 1889.77 907.944 1830.08C855.041 1800.33 794.606 1763.61 731.233 1721.55C667.859 1679.32 603.2 1631.94 536.336 1587.31C503.088 1564.91 469.289 1543.05 436.04 1521.75C402.609 1500.63 369.36 1480.62 337.031 1461.7C304.517 1442.97 272.739 1425.53 242.246 1409.73C226.816 1402.02 211.937 1394.67 197.609 1387.33C182.914 1380.53 168.769 1374.11 155.36 1367.86C127.99 1356.11 102.824 1345.27 80.0466 1337.38C57.4526 1328.56 37.2465 1322.87 20.8979 1317.73C4.36572 1312.59 -8.86011 1310.02 -17.6774 1307.63C-26.6782 1305.43 -31.4542 1304.32 -31.4542 1304.32L-32.7399 1303.96C-42.8429 1301.39 -48.9048 1291.28 -46.5167 1281.18C-43.9451 1271.08 -33.8422 1265.02 -23.7391 1267.41L-23.5553 1267.41C-23.5553 1267.41 -18.5957 1268.7 -9.22742 1271.08C0.140869 1273.84 14.1013 1276.59 31.1847 1282.29C48.2679 1287.98 69.2087 1294.22 92.3539 1303.59C115.866 1312.04 141.583 1323.61 169.504 1335.91C183.281 1342.52 197.609 1349.32 212.488 1356.48C227.183 1364.01 242.246 1371.9 257.676 1379.8C288.353 1396.33 320.499 1414.51 353.196 1433.79C385.709 1453.44 419.141 1474.19 452.389 1495.86C485.637 1517.71 519.252 1540.12 552.501 1563.26C618.997 1608.98 684.207 1657.28 745.377 1700.43C807.097 1743.41 866.429 1781.05 918.23 1811.72C1021.83 1873.24 1094.39 1907.4 1094.39 1907.4C1098.62 1909.42 1100.27 1914.19 1098.43 1918.41C1096.59 1922.45 1091.64 1924.29 1087.59 1922.45L1087.78 1922.82Z" fill="#569188"/>
<path d="M2334.67 1848.08C2363.33 1821.63 2381.33 1799.41 2388.5 1781.79L2398.78 1785.83C2391.07 1804.92 2371.96 1828.61 2342.21 1856.16L2334.67 1848.08Z" fill="#569188"/>
<path d="M1716.37 2209.48C1748.51 2189.65 1782.31 2168.35 1817.77 2146.31C2057.67 1996.09 2356.17 1809.15 2592.94 1747.26L2595.7 1757.91C2360.39 1819.25 2062.63 2005.83 1823.46 2155.49C1788.19 2177.71 1754.21 2198.83 1722.06 2218.66L1716.18 2209.3L1716.37 2209.48Z" fill="#569188"/>
<path d="M2233.46 1647.73C2240.62 1651.22 2228.68 1696.21 2199.11 1775.91C2172.29 1848.08 2129.67 1908.13 2065.38 1950.37C2069.79 1883.34 2099.92 1827.33 2135.18 1767.64C2167.88 1712.37 2226.48 1644.42 2233.64 1647.73L2233.46 1647.73Z" fill="#609790"/>
<path d="M2022.21 1865.16C2014.13 1900.79 1982.17 1989.12 1945.98 2003.26C1911.08 1962.12 1947.27 1895.83 1968.39 1856.16C1995.4 1805.66 2006.97 1736.98 2038.56 1689.78C2048.3 1738.26 2032.68 1818.33 2022.21 1865.16Z" fill="#76AB9F"/>
<path d="M2505.69 1701.17C2485.67 1731.65 2424.5 1802.9 2385.74 1803.46C2367.55 1752.77 2424.87 1703.37 2458.66 1673.62C2501.65 1635.98 2536.92 1575.56 2583.02 1542.69C2575.13 1591.54 2532.14 1660.95 2505.87 1701.17L2505.69 1701.17Z" fill="#76AB9F"/>
<path d="M2688.65 1691.62C2649.15 1698.6 2546.65 1742.86 2542.24 1767.83C2556.76 1781.97 2626.01 1772.79 2682.95 1755.34C2739.35 1738.08 2817.23 1725.04 2864.44 1692.17C2805.66 1678.21 2740.45 1682.44 2688.65 1691.62Z" fill="#609790"/>
<path d="M2252.56 1841.1C2251.83 1781.97 2264.87 1723.39 2287.46 1667.38C2299.59 1637.26 2316.49 1608.98 2326.96 1577.95C2333.75 1557.75 2336.33 1534.42 2346.8 1516.79C2376.19 1633.22 2317.41 1753.51 2252.75 1841.1L2252.56 1841.1Z" fill="#76AB9F"/>
<path d="M2904.67 1990.4C3090.38 1821.64 3417.17 1472.91 3519.12 1034.19L3529.59 1036.58C3427.09 1478.23 3098.65 1828.8 2912.02 1998.3L2904.85 1990.4L2904.67 1990.4Z" fill="#569188"/>
<path d="M3470.99 1197.08C3481.46 1189 3490.46 1179.82 3500.01 1170.27C3506.63 1163.66 3513.24 1157.05 3520.22 1150.62L3527.38 1158.7C3520.4 1164.94 3513.97 1171.37 3507.54 1177.8C3498.18 1187.35 3488.44 1197.08 3477.42 1205.71L3470.81 1197.26L3470.99 1197.08Z" fill="#569188"/>
<path d="M3427.64 1210.85C3427.64 1204.42 3428.19 1198.36 3429.66 1193.04L3440.13 1195.79C3436.27 1210.3 3440.13 1233.07 3443.25 1253.27C3444.9 1263.74 3446.56 1273.47 3446.93 1281.37L3436.09 1281.92C3435.72 1274.57 3434.25 1265.03 3432.6 1254.93C3430.21 1240.42 3427.64 1224.62 3427.64 1210.85Z" fill="#569188"/>
<path d="M3396.23 1366.58C3413.49 1354.46 3432.78 1342.15 3446.01 1344.17L3444.35 1354.83C3433.7 1353.17 3410.19 1369.88 3402.47 1375.39L3396.23 1366.58Z" fill="#569188"/>
<path d="M3433.7 1287.06C3442.7 1273.66 3455.19 1265.76 3467.13 1258.23C3472.83 1254.56 3478.7 1250.89 3484.21 1246.48L3490.83 1254.93C3484.95 1259.52 3478.7 1263.56 3472.83 1267.23C3461.25 1274.58 3450.42 1281.37 3442.7 1292.94L3433.7 1286.88L3433.7 1287.06Z" fill="#569188"/>
<path d="M3379.88 1301.94L3390.35 1299.55C3396.04 1325.26 3401.37 1362.35 3393.84 1392.29L3383.37 1389.72C3390.35 1361.8 3385.39 1326.54 3379.88 1301.94Z" fill="#569188"/>
<path d="M3299.97 1445.36L3309.89 1441.14C3321.28 1468.32 3320.91 1492.19 3319.26 1518.27L3308.42 1517.53C3310.08 1492.74 3310.44 1470.15 3299.97 1445.36Z" fill="#569188"/>
<path d="M3266.72 1581.99C3268.01 1572.25 3324.4 1545.08 3324.95 1544.71C3338.55 1539.57 3352.32 1534.79 3365.92 1530.02C3379.69 1525.24 3393.47 1520.28 3407.06 1515.33L3410.92 1525.43C3397.33 1530.57 3383.55 1535.34 3369.59 1540.3C3356 1545.08 3342.41 1549.85 3328.81 1554.99C3319.26 1558.66 3280.69 1580.7 3276.83 1585.29L3272.97 1582.35L3269.11 1587.68L3266.72 1582.17L3266.72 1581.99ZM3277.38 1582.17C3277.38 1580.89 3276.46 1579.6 3275.36 1578.87L3273.15 1581.99L3277.38 1582.35L3277.38 1582.17Z" fill="#569188"/>
<path d="M3123.81 1764.89C3133.73 1756.63 3147.69 1673.99 3142.18 1623.12L3152.84 1622.02C3157.8 1668.85 3146.59 1759.75 3130.79 1773.16L3123.81 1764.89Z" fill="#569188"/>
<path d="M3164.41 1718.25C3194.9 1702.64 3241.01 1695.48 3279.03 1700.25L3277.75 1710.9C3242.29 1706.31 3197.84 1713.29 3169.37 1727.8L3164.41 1718.25Z" fill="#569188"/>
<path d="M3557.88 674.624C3565.59 674.991 3576.06 749.916 3576.25 843.572C3576.25 928.414 3574.22 978.731 3512.69 1079.18C3521.51 1004.26 3502.03 939.432 3514.16 863.222C3525.36 792.888 3550.16 674.073 3558.06 674.441L3557.88 674.624Z" fill="#609790"/>
<path d="M3055.48 1432.5C3065.21 1432.87 3073.48 1489.25 3078.81 1593.01C3083.58 1687.03 3064.48 1774.99 3012.5 1853.41C2985.13 1775.91 2991.74 1698.6 3002.58 1614.49C3012.68 1536.63 3045.74 1432.14 3055.48 1432.5Z" fill="#609790"/>
<path d="M3672.68 1385.31C3676.17 1391 3622.17 1438.01 3554.94 1483.92C3494.13 1525.43 3447.66 1532.04 3374.73 1534.61C3415.51 1486.86 3469.89 1458.58 3530.32 1430.12C3586.16 1403.67 3669.19 1379.62 3672.68 1385.31Z" fill="#76AB9F"/>
<path d="M3432.97 1061C3443.25 1094.98 3458.68 1185.33 3434.99 1214.89C3385.57 1196.9 3384.29 1123.26 3383 1079.37C3381.53 1023.54 3358.2 959.633 3362.24 904.541C3393.84 940.902 3419.37 1016.38 3432.97 1061.19L3432.97 1061Z" fill="#76AB9F"/>
<path d="M3554.75 1371.54C3524.81 1377.6 3447.84 1382.37 3428.37 1357.39C3452.8 1313.87 3513.42 1320.3 3549.61 1323.79C3595.53 1328.2 3652.48 1313.51 3696.93 1322.87C3660.93 1348.21 3594.25 1363.82 3554.94 1371.72L3554.75 1371.54Z" fill="#76AB9F"/>
<path d="M3401 1675.28C3370.33 1694.38 3277.56 1727.43 3247.44 1705.76C3259.01 1644.61 3337.63 1631.2 3378.59 1620.92C3430.58 1607.7 3488.07 1567.48 3540.24 1560.87C3509.56 1605.13 3441.6 1650.12 3401 1675.28Z" fill="#609790"/>
<path d="M3585.43 1034.56C3607.29 1013.62 3635.03 994.524 3657.62 973.039C3676.36 955.226 3702.81 923.64 3729.08 921.987C3711.26 964.408 3680.95 1017.11 3654.13 1054.94C3618.31 1105.81 3561.37 1143.46 3506.26 1170.45C3521.14 1118.85 3544.1 1074.04 3585.43 1034.37L3585.43 1034.56Z" fill="#76AB9F"/>
<path d="M3269.48 1768.57C3303.28 1767.1 3341.12 1771.32 3375.84 1769.85C3404.86 1768.75 3449.87 1761.95 3474.48 1779.22C3429.66 1801.25 3366.65 1822.74 3317.06 1834.49C3250.38 1850.47 3171.76 1843.86 3104.16 1826.6C3152.65 1795.01 3205.74 1771.32 3269.66 1768.38L3269.48 1768.57Z" fill="#76AB9F"/>
<path d="M3246.33 1341.79C3241.01 1315.71 3240.09 1286.33 3234.76 1259.7C3230.35 1237.3 3219.33 1202.59 3230.72 1183.49C3254.42 1217.65 3279.77 1265.94 3295.56 1304.14C3316.87 1355.37 3320.91 1416.16 3314.48 1468.68C3282.34 1431.77 3256.44 1391.18 3246.33 1341.97L3246.33 1341.79Z" fill="#76AB9F"/>
<path d="M3468.23 1262.27C3506.63 1223.52 3554.02 1194.33 3605.82 1172.66C3633.56 1161.09 3663.5 1153.74 3691.05 1140.52C3708.87 1131.89 3725.95 1118.48 3744.51 1113.89C3687.19 1208.47 3571.1 1256.21 3468.23 1262.09L3468.23 1262.27Z" fill="#609790"/>
<path d="M3148.06 1647.36C3128.04 1593.37 3120.87 1535.16 3123.08 1476.39C3124.18 1444.81 3130.43 1413.22 3129.87 1381.27C3129.51 1360.52 3124.18 1338.11 3128.04 1318.65C3193.25 1415.98 3178.74 1545.81 3148.06 1647.55L3148.06 1647.36Z" fill="#76AB9F"/>
<path d="M3388.33 1312.96C3404.49 1273.11 3353.61 1212.14 3330.46 1182.39C3300.71 1144.01 3260.29 1127.11 3230.9 1087.63C3218.05 1123.62 3271.68 1184.59 3292.26 1212.32C3318.16 1247.21 3359.86 1287.06 3388.33 1312.96Z" fill="#609790"/>
<path d="M1344.76 1613.39C1361.29 1600.53 1396.2 1577.21 1407.4 1591.72C1418.61 1606.23 1381.5 1630.83 1362.58 1632.12C1380.4 1633.04 1429.08 1634.87 1429.08 1652.69C1429.08 1670.5 1396.56 1668.11 1377.46 1662.97C1393.07 1675.09 1400.79 1707.41 1388.11 1715.49C1376.91 1722.65 1348.44 1692.72 1342.01 1672.7C1346.05 1684.64 1331.35 1728.53 1316.84 1728.71C1291.86 1728.71 1300.49 1685.74 1310.96 1672.7C1302.7 1681.52 1274.96 1690.52 1264.86 1682.62C1254.75 1674.72 1291.86 1653.24 1301.96 1649.56C1287.45 1651.03 1247.41 1639.46 1250.71 1622.02C1253.83 1604.76 1295.72 1619.26 1306.74 1628.08C1299.21 1620.18 1267.24 1584.92 1280.1 1570.42C1292.96 1555.91 1324.56 1597.59 1330.62 1607.33C1328.78 1596.31 1327.86 1552.24 1341.82 1551.32C1355.78 1550.4 1356.33 1604.02 1345.13 1613.39L1344.76 1613.39Z" fill="#EBDFE1"/>
<path d="M1341.82 1622.02C1330.62 1618.9 1319.23 1625.51 1316.47 1636.53C1313.9 1647.55 1317.76 1658.56 1329.15 1661.69C1340.35 1664.81 1347.89 1659.3 1353.03 1649.2C1357.99 1639.83 1353.03 1625.14 1341.82 1622.02Z" fill="#FFA64D"/>
<path d="M2835.23 1525.24C2818.52 1548.01 2782.7 1590.43 2765.8 1574.09C2748.9 1557.74 2787.29 1512.39 2809.52 1505.04C2788.02 1509.26 2729.61 1521.57 2725.2 1497.14C2720.98 1472.72 2760.29 1465.92 2784.35 1467.21C2762.68 1455.27 2745.78 1413.4 2759 1398.53C2770.76 1385.31 2811.9 1417.63 2824.4 1443.15C2816.68 1427.91 2823.48 1363.27 2840.74 1358.68C2870.5 1350.78 2870.69 1412.49 2861.32 1433.6C2869.03 1418.91 2899.89 1397.98 2913.85 1405.69C2927.81 1413.4 2888.87 1454.36 2877.67 1462.44C2894.57 1455.82 2945.26 1459.68 2945.63 1484.47C2946 1509.26 2892.54 1502.1 2877.3 1493.29C2888.14 1501.73 2934.98 1540.3 2923.22 1564.17C2911.47 1588.05 2863.52 1540.48 2853.97 1529.1C2858.75 1543.6 2870.69 1603.84 2854.15 1609.53C2837.62 1615.04 2823.84 1541.77 2835.05 1525.42L2835.23 1525.24Z" fill="#EBDFE1"/>
<path d="M2836.52 1512.39C2852.5 1513.3 2865.73 1500.82 2866.09 1484.84C2866.46 1469.05 2858.01 1455.09 2842.21 1454.17C2826.23 1453.25 2818.15 1463.17 2813.92 1478.41C2809.88 1492.74 2820.72 1511.47 2836.52 1512.39Z" fill="#FFA64D"/>
<path d="M2.34439 1110.95L7.12054 1091.85C134.602 1123.44 253.083 1138.31 254.369 1138.5L251.981 1157.96C250.879 1157.96 131.296 1142.72 2.52826 1110.95L2.34439 1110.95Z" fill="#76AB9F"/>
<path d="M244.45 1151.72C248.675 1108.38 372.666 1008.48 401.322 1053.1C429.978 1097.73 388.464 1121.97 388.464 1121.97C388.464 1121.97 441.918 1126.38 438.428 1173.02C434.938 1219.66 379.463 1208.28 379.463 1208.28C379.463 1208.28 410.874 1233.07 393.423 1267.59C375.973 1302.12 237.837 1221.68 244.45 1151.9L244.45 1151.72Z" fill="#EBDFE1"/>
<path d="M273.106 1104.34C276.413 1137.39 270.351 1168.61 259.881 1199.1C259.881 1199.1 238.205 1170.27 241.328 1149.51C244.451 1128.58 273.106 1104.52 273.106 1104.52L273.106 1104.34Z" fill="#76AB9F"/>
<path d="M3518.01 292.471L3534.55 282.738C3535.83 285.125 3669.01 516.511 3674.52 848.899L3655.42 849.266C3650.09 522.204 3519.48 294.858 3518.2 292.471L3518.01 292.471Z" fill="#76AB9F"/>
<path d="M3533.63 293.021C3497.07 311.568 3351.96 257.395 3372.35 210.383C3392.74 163.371 3433.88 186.143 3433.88 186.143C3433.88 186.143 3409.09 138.58 3448.03 117.645C3486.97 96.7103 3507.18 149.598 3507.18 149.598C3507.18 149.598 3510.12 110.3 3546.85 107.545C3583.59 104.79 3592.59 262.904 3533.63 292.837L3533.63 293.021Z" fill="#EBDFE1"/>
<path d="M3480.91 293.021C3505.34 273.372 3533.44 262.537 3563.2 255.926C3563.2 255.926 3551.81 288.981 3533.44 296.878C3515.26 304.958 3480.91 293.021 3480.91 293.021Z" fill="#76AB9F"/>
</g>
</g>
</svg>
