<svg width="1243" height="579" viewBox="0 0 1243 579" fill="none" xmlns="http://www.w3.org/2000/svg">
<mask id="mask0_236_61" style="mask-type:alpha" maskUnits="userSpaceOnUse" x="0" y="0" width="1243" height="579">
<path d="M1243 0H0V578.713H1243V0Z" fill="#CADB7F"/>
</mask>
<g mask="url(#mask0_236_61)">
<path d="M140.825 606.879C151.59 592.668 150.52 552.592 165.746 563.711C178.474 572.987 134.045 633.219 140.587 641.96C147.189 650.7 188.347 667.408 193.343 662.533C198.339 657.657 191.915 642.316 201.967 624.538C213.862 603.549 206.963 574.771 217.074 577.149C227.184 579.528 224.865 596.057 222.783 610.565C220.821 624.181 212.553 665.327 220.702 668.538C228.85 671.749 265.368 671.749 268.699 667.587C272.029 663.424 270.245 647.489 270.542 636.489C270.899 622.933 254.008 603.43 263.584 600.1C273.159 596.83 276.252 611.576 278.572 622.635C280.713 632.981 281.427 661.878 289.932 663.603C298.437 665.327 325.439 655.397 328.234 651.652C331.03 647.906 311.165 621.625 318.242 622.041C324.666 622.457 329.067 637.738 335.669 648.5C348.218 642.911 358.151 636.965 363.503 631.495C370.581 624.241 373.614 607.949 373.852 588.387C364.455 591.419 336.918 599.565 330.554 591.895C323.476 583.333 371.176 579.944 373.555 573.165C375.934 566.387 374.685 543.317 368.975 533.744C366.18 529.047 349.408 529.344 331.743 535.884C313.187 542.782 293.5 555.922 283.984 549.679C264.654 537.074 315.566 532.198 340.129 523.874C352.203 519.771 362.671 515.906 363.622 509.306C364.574 502.706 359.221 494.501 356.783 488.614C354.047 482.014 346.91 466.793 340.308 462.987C333.706 459.182 310.808 471.787 289.813 485.641C259.956 505.322 254.722 526.311 242.351 522.447C229.98 518.641 249.666 483.739 271.197 470.301C288.861 459.242 321.989 446.636 318.361 439.798C314.733 432.961 287.909 409.355 269.294 406.026C250.678 402.755 222.605 490.577 210.769 484.809C198.16 478.625 224.211 444.852 230.931 428.025C235.452 416.728 241.518 402.577 239.912 395.977C238.247 389.377 211.423 389.199 202.323 395.263C193.283 401.328 189.477 460.371 173.835 458.587C156.111 456.506 175.321 428.798 178.414 415.955C179.663 410.663 179.604 405.312 179.068 400.734C171.634 403.35 164.437 406.68 157.895 411.02C128.454 430.285 125.361 474.047 125.361 474.047C125.361 474.047 99.0136 485.403 87.3563 503.241C80.7545 513.29 73.7958 533.744 75.2233 556.874C80.2787 553.841 86.2263 551.463 92.2334 549.382C105.972 544.565 122.804 526.965 124.172 539.511C125.421 551.344 83.3715 574.295 82.3009 587.079C82.063 589.873 84.7989 592.727 86.3452 595.463C94.2555 609.673 119.473 635.062 125.421 633.1C132.439 630.781 129.525 622.041 141.063 606.879L140.825 606.879Z" fill="#76AB9F"/>
<path d="M75.0448 556.933C80.1003 553.901 86.0479 551.522 92.055 549.441C105.794 544.625 122.626 527.025 123.994 539.571C125.243 551.404 83.193 574.355 82.1225 587.139C81.8846 589.933 84.6204 592.787 86.1668 595.522C94.0771 609.733 119.295 635.122 125.243 633.16C132.261 630.841 129.346 622.1 140.885 606.938C151.65 592.728 150.579 552.652 165.805 563.771C178.533 573.047 134.104 633.279 140.647 642.019C147.249 650.76 188.406 667.468 193.402 662.592C198.398 657.717 191.975 642.376 202.026 624.598C213.921 603.609 207.022 574.83 217.133 577.209C227.244 579.587 224.924 596.117 222.843 610.625C220.88 624.241 212.613 665.387 220.761 668.598C228.909 671.809 265.427 671.809 268.758 667.646C272.089 663.484 270.305 647.549 270.602 636.549C270.959 622.992 254.068 603.49 263.643 600.16C273.219 596.89 276.312 611.636 278.631 622.695C280.772 633.041 281.486 661.938 289.991 663.663C298.496 665.387 325.498 655.457 328.294 651.711C331.089 647.965 311.224 621.684 318.302 622.101C324.725 622.517 329.126 637.798 335.728 648.56C348.278 642.971 358.21 637.025 363.563 631.555C365.169 629.89 366.537 627.749 367.726 625.192C325.32 608.841 254.365 564.306 222.843 542.663C189.893 520.068 184.183 511.031 125.361 474.166C125.361 474.166 99.0136 485.523 87.3563 503.361C80.7545 513.409 73.7958 533.863 75.2232 556.993L75.0448 556.933Z" fill="#609790"/>
<path d="M352.203 622.576C352.203 622.576 328.175 611.873 293.976 592.549C276.847 582.917 257.279 571.025 236.76 557.409C216.241 543.733 195.305 528.393 173.656 513.944C162.891 506.69 151.947 499.614 141.182 492.717C130.358 485.879 119.592 479.398 109.125 473.274C98.5973 467.209 88.308 461.56 78.435 456.447C73.439 453.949 68.6215 451.571 63.9823 449.193C59.2242 446.993 54.6446 444.912 50.3028 442.89C41.4409 439.085 33.2928 435.577 25.9177 433.02C18.6022 430.166 12.0598 428.323 6.76645 426.658C1.4136 424.993 -2.86871 424.16 -5.72357 423.387C-8.63788 422.674 -10.1843 422.317 -10.1843 422.317L-10.6006 422.198C-13.8717 421.366 -15.8344 418.096 -15.0612 414.825C-14.2286 411.555 -10.9575 409.593 -7.68628 410.366L-7.62674 410.366C-7.62674 410.366 -6.0209 410.782 -2.98764 411.555C0.0456542 412.447 4.5658 413.339 10.0971 415.182C15.6284 417.025 22.4086 419.047 29.9026 422.079C37.5155 424.814 45.8422 428.56 54.8825 432.544C59.3432 434.685 63.9823 436.885 68.7999 439.204C73.558 441.641 78.435 444.198 83.431 446.755C93.3635 452.106 103.772 457.993 114.359 464.236C124.886 470.598 135.71 477.317 146.476 484.333C157.241 491.409 168.125 498.663 178.89 506.155C200.42 520.96 221.534 536.598 241.34 550.571C261.324 564.484 280.534 576.673 297.307 586.603C330.851 606.522 354.344 617.581 354.344 617.581C355.712 618.235 356.247 619.781 355.653 621.149C355.058 622.457 353.452 623.052 352.144 622.457L352.203 622.576Z" fill="#569188"/>
<path d="M755.926 598.376C765.205 589.814 771.033 582.619 773.353 576.911L776.684 578.219C774.186 584.403 768 592.073 758.365 600.992L755.926 598.376Z" fill="#569188"/>
<path d="M555.73 715.392C566.138 708.97 577.082 702.073 588.561 694.938C666.236 646.3 762.885 585.77 839.549 565.733L840.442 569.181C764.253 589.041 667.842 649.451 590.404 697.911C578.985 705.105 567.982 711.943 557.574 718.365L555.67 715.332L555.73 715.392Z" fill="#569188"/>
<path d="M723.155 533.506C725.474 534.636 721.609 549.203 712.033 575.008C703.349 598.376 689.551 617.819 668.734 631.495C670.162 609.792 679.916 591.657 691.335 572.333C701.922 554.435 720.895 532.436 723.214 533.506L723.155 533.506Z" fill="#609790"/>
<path d="M654.758 603.906C652.141 615.441 641.792 644.041 630.075 648.619C618.775 635.3 630.491 613.836 637.331 600.992C646.074 584.641 649.821 562.403 660.051 547.122C663.203 562.82 658.148 588.744 654.758 603.906Z" fill="#76AB9F"/>
<path d="M811.298 550.809C804.816 560.679 785.01 583.749 772.461 583.927C766.572 567.517 785.129 551.522 796.073 541.89C809.99 529.7 821.409 510.139 836.338 499.495C833.78 515.312 819.863 537.787 811.358 550.809L811.298 550.809Z" fill="#76AB9F"/>
<path d="M870.537 547.717C857.749 549.977 824.562 564.306 823.134 572.393C827.833 576.971 850.255 573.998 868.693 568.35C886.952 562.76 912.17 558.539 927.455 547.896C908.423 543.377 887.309 544.744 870.537 547.717Z" fill="#609790"/>
<path d="M729.341 596.117C729.103 576.971 733.325 558.003 740.641 539.868C744.566 530.117 750.038 520.96 753.428 510.912C755.629 504.371 756.462 496.82 759.852 491.112C769.368 528.809 750.336 567.755 729.4 596.117L729.341 596.117Z" fill="#76AB9F"/>
<path d="M940.48 644.457C1000.61 589.814 1106.42 476.901 1139.43 334.853L1142.82 335.626C1109.63 478.626 1003.29 592.133 942.859 647.014L940.54 644.457L940.48 644.457Z" fill="#569188"/>
<path d="M1123.84 387.594C1127.24 384.978 1130.15 382.005 1133.24 378.913C1135.38 376.772 1137.52 374.632 1139.78 372.551L1142.1 375.167C1139.84 377.188 1137.76 379.269 1135.68 381.35C1132.65 384.442 1129.5 387.594 1125.93 390.388L1123.79 387.653L1123.84 387.594Z" fill="#569188"/>
<path d="M1109.81 392.053C1109.81 389.972 1109.99 388.01 1110.46 386.285L1113.85 387.177C1112.6 391.875 1113.85 399.248 1114.86 405.788C1115.4 409.177 1115.93 412.329 1116.05 414.885L1112.54 415.064C1112.43 412.685 1111.95 409.593 1111.41 406.323C1110.64 401.626 1109.81 396.512 1109.81 392.053Z" fill="#569188"/>
<path d="M1099.64 442.474C1105.23 438.55 1111.47 434.567 1115.76 435.221L1115.22 438.669C1111.77 438.134 1104.16 443.545 1101.66 445.329L1099.64 442.474Z" fill="#569188"/>
<path d="M1111.77 416.729C1114.69 412.388 1118.73 409.832 1122.6 407.394C1124.44 406.204 1126.34 405.015 1128.13 403.588L1130.27 406.323C1128.36 407.81 1126.34 409.118 1124.44 410.307C1120.69 412.686 1117.18 414.886 1114.69 418.632L1111.77 416.669L1111.77 416.729Z" fill="#569188"/>
<path d="M1094.34 421.544L1097.73 420.771C1099.58 429.096 1101.3 441.107 1098.86 450.799L1095.47 449.966C1097.73 440.928 1096.13 429.512 1094.34 421.544Z" fill="#569188"/>
<path d="M1068.47 467.983L1071.68 466.615C1075.37 475.415 1075.25 483.145 1074.72 491.588L1071.21 491.35C1071.74 483.323 1071.86 476.01 1068.47 467.983Z" fill="#569188"/>
<path d="M1057.71 512.22C1058.12 509.069 1076.38 500.269 1076.56 500.15C1080.96 498.485 1085.42 496.939 1089.82 495.393C1094.29 493.847 1098.75 492.242 1103.15 490.636L1104.4 493.907C1100 495.571 1095.53 497.117 1091.01 498.723C1086.61 500.269 1082.21 501.815 1077.81 503.479C1074.72 504.669 1062.23 511.804 1060.98 513.29L1059.73 512.339L1058.48 514.063L1057.71 512.279L1057.71 512.22ZM1061.16 512.279C1061.16 511.863 1060.86 511.447 1060.5 511.209L1059.79 512.22L1061.16 512.339L1061.16 512.279Z" fill="#569188"/>
<path d="M1011.44 571.441C1014.65 568.765 1019.17 542.009 1017.38 525.539L1020.83 525.182C1022.44 540.344 1018.81 569.776 1013.7 574.117L1011.44 571.441Z" fill="#569188"/>
<path d="M1024.58 556.339C1034.45 551.285 1049.38 548.966 1061.69 550.512L1061.28 553.96C1049.8 552.474 1035.4 554.733 1026.19 559.431L1024.58 556.339Z" fill="#569188"/>
<path d="M1151.98 218.432C1154.48 218.551 1157.87 242.81 1157.92 273.134C1157.92 300.605 1157.27 316.896 1137.35 349.421C1140.2 325.161 1133.9 304.172 1137.82 279.497C1141.45 256.724 1149.48 218.254 1152.04 218.373L1151.98 218.432Z" fill="#609790"/>
<path d="M989.31 463.82C992.462 463.939 995.139 482.193 996.864 515.788C998.41 546.231 992.224 574.712 975.393 600.101C966.531 575.009 968.672 549.977 972.181 522.744C975.452 497.534 986.158 463.701 989.31 463.82Z" fill="#609790"/>
<path d="M1189.15 448.539C1190.28 450.382 1172.79 465.604 1151.03 480.469C1131.34 493.907 1116.29 496.047 1092.68 496.88C1105.88 481.42 1123.49 472.263 1143.06 463.047C1161.14 454.485 1188.02 446.696 1189.15 448.539Z" fill="#76AB9F"/>
<path d="M1111.53 343.534C1114.86 354.534 1119.86 383.788 1112.19 393.361C1096.19 387.534 1095.77 363.691 1095.36 349.48C1094.88 331.405 1087.33 310.713 1088.64 292.875C1098.86 304.648 1107.13 329.086 1111.53 343.594L1111.53 343.534Z" fill="#76AB9F"/>
<path d="M1150.97 444.079C1141.27 446.042 1116.35 447.587 1110.05 439.501C1117.96 425.409 1137.58 427.49 1149.3 428.62C1164.17 430.047 1182.61 425.29 1197 428.323C1185.34 436.528 1163.75 441.582 1151.03 444.139L1150.97 444.079Z" fill="#76AB9F"/>
<path d="M1101.18 542.426C1091.25 548.609 1061.22 559.312 1051.46 552.296C1055.21 532.496 1080.67 528.155 1093.93 524.826C1110.76 520.545 1129.38 507.523 1146.27 505.383C1136.33 519.712 1114.33 534.28 1101.18 542.426Z" fill="#609790"/>
<path d="M1160.9 334.972C1167.98 328.194 1176.96 322.01 1184.27 315.053C1190.34 309.286 1198.9 299.059 1207.41 298.524C1201.64 312.259 1191.83 329.324 1183.14 341.572C1171.54 358.042 1153.11 370.232 1135.26 378.972C1140.08 362.264 1147.52 347.756 1160.9 334.913L1160.9 334.972Z" fill="#76AB9F"/>
<path d="M1058.6 572.631C1069.54 572.155 1081.8 573.523 1093.04 573.047C1102.43 572.69 1117.01 570.49 1124.98 576.08C1110.46 583.215 1090.06 590.171 1074 593.977C1052.41 599.15 1026.96 597.009 1005.07 591.42C1020.77 581.193 1037.96 573.523 1058.66 572.571L1058.6 572.631Z" fill="#76AB9F"/>
<path d="M1051.11 434.447C1049.38 426.004 1049.08 416.49 1047.36 407.869C1045.93 400.615 1042.36 389.377 1046.05 383.193C1053.72 394.253 1061.93 409.89 1067.05 422.258C1073.94 438.847 1075.25 458.528 1073.17 475.534C1062.76 463.582 1054.38 450.442 1051.11 434.507L1051.11 434.447Z" fill="#76AB9F"/>
<path d="M1122.95 408.702C1135.38 396.156 1150.73 386.702 1167.5 379.686C1176.48 375.94 1186.18 373.561 1195.1 369.28C1200.87 366.486 1206.4 362.145 1212.4 360.659C1193.85 391.28 1156.26 406.74 1122.95 408.643L1122.95 408.702Z" fill="#609790"/>
<path d="M1019.29 533.388C1012.8 515.907 1010.48 497.058 1011.2 478.031C1011.55 467.804 1013.58 457.577 1013.4 447.231C1013.28 440.512 1011.55 433.258 1012.8 426.956C1033.92 458.469 1029.22 500.507 1019.29 533.447L1019.29 533.388Z" fill="#76AB9F"/>
<path d="M1097.08 425.113C1102.31 412.21 1085.84 392.469 1078.35 382.837C1068.71 370.41 1055.63 364.94 1046.11 352.156C1041.95 363.81 1059.31 383.551 1065.97 392.529C1074.36 403.826 1087.86 416.729 1097.08 425.113Z" fill="#609790"/>
<path d="M435.41 522.386C440.763 518.224 452.063 510.673 455.692 515.37C459.32 520.068 447.305 528.035 441.179 528.451C446.949 528.749 462.71 529.343 462.71 535.111C462.71 540.878 452.182 540.105 445.997 538.441C451.052 542.365 453.55 552.83 449.447 555.446C445.818 557.765 436.6 548.073 434.518 541.592C435.827 545.457 431.068 559.667 426.37 559.727C418.281 559.727 421.076 545.813 424.467 541.592C421.79 544.446 412.809 547.359 409.538 544.803C406.267 542.246 418.281 535.289 421.552 534.1C416.854 534.576 403.888 530.83 404.958 525.181C405.97 519.592 419.53 524.289 423.099 527.143C420.66 524.587 410.311 513.17 414.475 508.473C418.638 503.776 428.868 517.273 430.831 520.424C430.236 516.857 429.938 502.587 434.459 502.289C438.979 501.992 439.157 519.354 435.529 522.386L435.41 522.386Z" fill="#EBDFE1"/>
<path d="M434.459 525.181C430.831 524.171 427.143 526.311 426.251 529.879C425.419 533.446 426.668 537.014 430.355 538.025C433.983 539.035 436.422 537.252 438.087 533.981C439.693 530.949 438.087 526.192 434.459 525.181Z" fill="#FFA64D"/>
<path d="M917.998 493.847C912.586 501.22 900.988 514.955 895.516 509.663C890.045 504.371 902.475 489.685 909.672 487.306C902.713 488.674 883.8 492.658 882.372 484.749C881.004 476.841 893.732 474.641 901.523 475.058C894.505 471.193 889.034 457.636 893.316 452.82C897.122 448.539 910.445 459.004 914.489 467.268C911.991 462.333 914.192 441.404 919.783 439.917C929.418 437.36 929.477 457.339 926.444 464.177C928.942 459.42 938.934 452.641 943.454 455.139C947.974 457.636 935.365 470.895 931.737 473.512C937.209 471.371 953.624 472.62 953.743 480.647C953.862 488.674 936.555 486.355 931.618 483.501C935.127 486.236 950.294 498.722 946.487 506.452C942.681 514.182 927.158 498.782 924.065 495.095C925.611 499.793 929.477 519.295 924.124 521.139C918.772 522.922 914.311 499.198 917.939 493.906L917.998 493.847Z" fill="#EBDFE1"/>
<path d="M918.415 489.684C923.589 489.982 927.871 485.938 927.99 480.766C928.109 475.652 925.373 471.133 920.258 470.836C915.084 470.539 912.467 473.749 911.099 478.685C909.791 483.322 913.3 489.387 918.415 489.684Z" fill="#FFA64D"/>
<path d="M0.759132 359.707L2.30556 353.523C43.5819 363.75 81.9439 368.566 82.3602 368.625L81.5871 374.928C81.2302 374.928 42.5114 369.993 0.818664 359.707L0.759132 359.707Z" fill="#76AB9F"/>
<path d="M79.1486 372.906C80.5166 358.874 120.663 326.528 129.941 340.977C139.219 355.425 125.778 363.274 125.778 363.274C125.778 363.274 143.085 364.701 141.955 379.803C140.825 394.906 122.863 391.22 122.863 391.22C122.863 391.22 133.034 399.247 127.384 410.425C121.733 421.603 77.0075 395.56 79.1486 372.966L79.1486 372.906Z" fill="#EBDFE1"/>
<path d="M88.4271 357.566C89.4976 368.268 87.5349 378.376 84.1448 388.247C84.1448 388.247 77.1267 378.912 78.1378 372.193C79.1488 365.414 88.4271 357.625 88.4271 357.625L88.4271 357.566Z" fill="#76AB9F"/>
<path d="M1139.07 94.6975L1144.42 91.5461C1144.84 92.3191 1187.96 167.238 1189.74 274.859L1183.56 274.978C1181.83 169.081 1139.55 95.4704 1139.13 94.6975L1139.07 94.6975Z" fill="#76AB9F"/>
<path d="M1144.13 94.8756C1132.29 100.881 1085.3 83.3405 1091.91 68.1189C1098.51 52.8974 1111.83 60.2704 1111.83 60.2704C1111.83 60.2704 1103.8 44.8704 1116.41 38.0921C1129.02 31.3137 1135.56 48.4379 1135.56 48.4379C1135.56 48.4379 1136.51 35.7137 1148.41 34.8218C1160.3 33.9299 1163.22 85.1243 1144.13 94.8162L1144.13 94.8756Z" fill="#EBDFE1"/>
<path d="M1127.06 94.8757C1134.97 88.5135 1144.07 85.0055 1153.7 82.865C1153.7 82.865 1150.01 93.5676 1144.07 96.1244C1138.18 98.7406 1127.06 94.8757 1127.06 94.8757Z" fill="#76AB9F"/>
</g>
</svg>
