<svg width="1714" height="861" viewBox="0 0 1714 861" fill="none" xmlns="http://www.w3.org/2000/svg">
<mask id="mask0_1_1286" style="mask-type:alpha" maskUnits="userSpaceOnUse" x="0" y="0" width="1714" height="2160">
<path d="M1714 0H0V2160H1714V0Z" fill="#CADB7F"/>
</mask>
<g mask="url(#mask0_1_1286)">
<path d="M401.278 255.234C406.59 251.231 379.705 195.842 371.043 178.441C386.16 166.84 403.648 154.831 422.933 143.067C431.922 160.468 457.909 209.239 464.283 204.093C470.656 198.864 455.048 145.763 449.492 127.545C454.231 124.849 459.134 122.235 464.037 119.539C471.719 138.982 496.724 200.988 501.954 195.106C507.184 189.224 484.63 130.568 477.439 112.513C495.662 103.2 514.621 94.2134 534.151 85.8805C540.362 99.6869 563.896 149.929 572.967 142.332C581.956 134.897 569.208 87.1877 565.286 73.2996C569.453 71.6657 573.621 70.1952 577.87 68.643C583.345 82.7761 602.876 131.793 608.678 126.319C614.316 121.009 603.693 76.3223 599.934 61.0454C617.258 55.3267 634.664 50.3434 651.906 46.1769C657.136 61.2087 670.865 98.7883 676.013 96.0924C681.161 93.3965 669.966 56.9606 665.472 43.0725C670.62 41.9288 675.85 40.7851 680.916 39.8864C684.103 55 692.357 90.2104 699.63 85.1453C706.739 80.1619 703.062 49.9349 701.019 36.7003C702.49 36.4553 704.042 36.2102 705.513 35.9651C725.616 33.3509 746.372 31.7987 766.965 32.1254C767.619 41.6837 769.416 59.6566 773.748 58.2678C777.997 56.9606 780.203 40.9485 781.02 32.6156C817.793 34.8214 853.504 43.6444 883.576 64.0681C847.947 77.1392 835.526 99.0334 820.98 124.931C807.66 117.741 777.343 102.219 773.175 108.183C768.763 114.392 797.119 137.757 808.151 146.498C798.181 162.02 785.106 178.277 770.806 193.799C755.524 181.872 707.638 145.599 699.466 152.298C691.294 158.916 732.97 202.867 747.353 217.654C736.648 227.784 726.024 237.179 716.055 244.94C710.825 249.025 705.922 252.783 701.1 256.459C685.738 242.571 638.505 200.58 633.193 203.684C627.8 206.789 674.869 251.966 689.17 265.527C683.286 269.939 677.566 274.187 672.091 278.19C660.568 266.099 620.527 225.252 610.557 231.542C600.996 237.506 634.255 280.804 646.676 296.244C632.784 305.884 619.056 315.034 603.856 325.164C589.147 311.93 545.673 273.615 539.544 277.618C533.17 281.784 577.543 322.468 590.373 333.987C584.98 337.5 579.586 340.85 574.193 344.117C567.41 336.03 539.136 303.352 532.517 306.62C526.551 309.642 548.86 340.85 558.176 353.512C542.078 362.744 525.979 371.077 510.126 378.593C494.109 363.234 456.601 328.759 448.184 332.68C439.767 336.683 468.695 374.998 481.525 391.255C474.661 394.115 467.96 396.729 461.259 399.261C452.433 386.027 428.654 351.715 420.727 353.104C412.8 354.493 435.518 390.928 444.752 405.225C363.688 432.756 296.107 434.962 270.039 411.842C229.017 375.406 237.924 330.556 264.646 288.483C273.226 295.672 289.57 308.417 292.512 304.005C295.372 299.675 284.585 280.314 278.048 269.367C282.134 264.057 286.465 258.828 290.877 253.681C298.804 265.854 328.222 310.459 332.88 304.495C337.538 298.532 313.595 250.25 306.567 236.526C315.965 226.804 325.607 217.572 335.005 209.076C341.216 218.961 361.563 250.414 365.731 247.064C369.653 243.878 353.8 210.955 347.426 198.047C351.022 194.943 354.454 192.002 357.804 189.143C358.213 188.816 358.703 188.407 359.112 188.081C367.529 204.583 396.048 259.237 401.442 255.152L401.278 255.234Z" fill="#76AB9F"/>
<path d="M773.584 58.2672C777.833 56.9601 780.04 40.9479 780.857 32.615C817.63 34.8208 853.34 43.6438 883.413 64.0675C737.71 59.656 561.69 210.546 494.273 261.605C435.926 305.802 300.765 386.435 265.3 407.43C229.589 371.811 238.66 328.84 264.401 288.483C272.981 295.672 289.325 308.416 292.267 304.005C295.127 299.675 284.34 280.313 277.802 269.366C281.888 264.056 286.219 258.828 290.632 253.681C298.559 265.853 327.977 310.459 332.635 304.495C337.293 298.531 313.35 250.25 306.322 236.525C315.72 226.803 325.362 217.572 334.76 209.076C340.97 218.961 361.318 250.413 365.486 247.064C369.408 243.877 353.555 210.954 347.181 198.047C350.776 194.942 354.209 192.001 357.559 189.142C357.968 188.815 358.458 188.407 358.866 188.08C367.283 204.582 395.803 259.236 401.196 255.151C406.508 251.148 379.623 195.759 370.961 178.358C386.079 166.758 403.566 154.749 422.851 142.985C431.84 160.385 457.827 209.157 464.201 204.01C470.575 198.782 454.967 145.68 449.41 127.463C454.149 124.767 459.052 122.152 463.955 119.456C471.637 138.9 496.643 200.906 501.872 195.024C507.102 189.142 484.548 130.485 477.357 112.431C495.58 103.118 514.539 94.1311 534.069 85.7983C540.28 99.6047 563.815 149.847 572.885 142.249C581.874 134.815 569.126 87.1054 565.204 73.2173C569.371 71.5834 573.539 70.1129 577.788 68.5607C583.263 82.6939 602.794 131.711 608.596 126.237C614.234 120.927 603.611 76.24 599.852 60.9631C617.176 55.2445 634.582 50.2611 651.825 46.0946C657.055 61.1265 670.783 98.706 675.931 96.0101C681.079 93.3142 669.884 56.8783 665.39 42.9903C670.538 41.8465 675.768 40.7028 680.834 39.8042C684.021 54.9177 692.275 90.1281 699.548 85.063C706.657 80.0796 702.98 49.8526 700.937 36.6181C702.408 36.373 703.96 36.1279 705.431 35.8828C725.534 33.2686 746.29 31.7164 766.883 32.0432C767.537 41.6014 769.335 59.5743 773.666 58.1855L773.584 58.2672Z" fill="#609790"/>
<path d="M820.163 72.3185C820.163 72.3185 816.568 72.972 809.867 74.2791C803.411 75.913 793.768 78.4456 782.001 83.1021C770.152 87.5137 756.097 93.9675 740.325 102.055C724.553 110.143 707.066 119.865 688.434 131.384C651.171 154.258 608.923 183.015 564.959 215.693C542.813 231.868 519.851 248.616 496.561 265.608C473.19 282.601 449.328 299.511 425.385 316.422C401.36 333.17 377.253 349.917 353.228 365.929C341.297 374.099 329.285 381.86 317.354 389.621C305.505 397.382 293.738 404.897 281.97 412.168C270.366 419.521 258.762 426.547 247.322 433.327C235.963 440.19 224.686 446.643 213.654 452.771C191.59 465.188 170.262 476.217 150.241 485.693C130.22 495.17 111.425 503.094 94.5914 509.63C77.6758 516.002 62.8031 521.312 50.3821 524.907C38.0426 528.91 28.1549 531.443 21.454 533.158C14.7532 534.955 11.1575 535.936 11.1575 535.936C6.41789 537.161 1.59666 534.384 0.289164 529.645C-0.936604 524.907 1.84172 520.087 6.58134 518.78L6.90824 518.698C6.90824 518.698 10.4221 517.799 16.9595 516.084C23.4969 514.368 33.1396 511.918 45.1521 508.078C57.328 504.565 71.7921 499.418 88.2991 493.291C104.724 487.001 123.111 479.24 142.805 470.008C162.417 460.695 183.582 450.238 205.482 438.147C216.433 432.183 227.71 425.975 238.987 419.276C250.345 412.74 261.949 405.878 273.553 398.689C285.239 391.581 297.088 384.31 308.937 376.713C320.868 369.197 332.88 361.518 344.811 353.593C368.918 337.908 393.106 321.487 417.213 304.985C441.32 288.401 465.345 271.735 488.798 255.069C512.251 238.322 535.377 221.901 557.686 205.971C602.467 174.028 645.287 145.517 683.531 123.459C702.571 112.349 720.549 103.036 736.729 95.2747C752.91 87.432 767.537 81.6316 779.795 77.5469C791.971 73.2988 802.022 71.093 808.886 69.6225C815.669 68.6422 819.264 68.0703 819.264 68.0703C820.49 67.9069 821.552 68.7239 821.798 69.9493C821.961 71.093 821.144 72.2368 820 72.4002L820.163 72.3185Z" fill="#569188"/>
<path d="M122.96 210.153C142.654 216.771 167.986 255.902 175.259 235.315C181.388 217.996 99.0983 189.403 99.6703 176.659C100.242 163.914 128.844 120.779 136.852 122.25C144.86 123.72 148.783 142.592 170.111 153.13C195.362 165.548 207.619 197.654 215.791 188.749C223.963 179.845 210.888 165.466 199.284 152.885C188.416 141.121 153.441 107.055 159.161 98.5584C164.881 90.0622 199.938 66.1257 205.903 67.9229C211.869 69.7202 220.613 86.2225 228.131 96.5978C237.365 109.342 234.014 139.242 245.373 136.138C256.732 133.034 250.031 116.858 244.964 104.686C240.225 93.33 221.92 65.1453 228.948 57.8745C235.975 50.6037 268.417 42.4342 273.566 44.1498C278.714 45.9471 276.916 84.1802 283.454 79.1151C289.337 74.5402 283.453 56.8941 282.8 42.2708C298.571 39.4115 312.055 38.5945 320.717 40.3101C332.321 42.5976 345.886 56.3223 358.961 74.9487C347.929 78.1348 316.141 88.4283 315.078 100.029C313.852 112.937 361.984 84.8337 368.685 89.8171C375.386 94.8005 389.36 117.757 390.177 130.664C390.585 136.955 374.324 147.739 352.995 153.049C330.605 158.604 303.066 158.931 297.999 171.185C287.785 196.02 339.839 167.264 368.93 159.094C383.231 155.091 395.815 151.905 401.045 157.624C406.275 163.342 406.602 174.78 408.073 181.969C409.789 190.138 412.894 209.418 409.054 217.424C405.213 225.43 374.896 228.371 345.641 228.861C303.965 229.597 285.17 212.849 275.854 224.613C266.538 236.377 308.296 256.964 337.877 255.821C362.148 254.84 402.189 245.2 403.17 254.105C404.151 263.01 393.936 303.367 378.246 318.726C362.556 334.084 277.815 268.238 270.215 281.473C262.125 295.688 309.44 311.046 326.927 322.729C338.695 330.571 353.894 340.211 356.591 347.646C359.288 355.08 333.628 372.889 320.962 373.053C308.296 373.134 265.802 318.889 251.992 330.98C236.302 344.623 272.994 358.674 284.352 368.886C289.01 373.134 292.524 378.363 294.976 383.019C286.068 385.388 276.998 386.859 267.845 387.104C226.905 387.921 195.117 347.891 195.117 347.891C195.117 347.891 162.348 354.263 139.467 344.786C126.555 339.476 106.371 324.363 92.5609 301.243C99.4252 300.834 106.698 299.201 113.807 297.322C130.151 292.91 157.935 298.792 150.989 285.803C144.452 273.63 88.8835 279.185 79.486 267.666C77.443 265.134 78.1785 260.641 77.8517 256.964C76.1356 238.175 83.6536 197.164 90.6813 195.122C98.9348 192.671 101.877 203.046 122.96 210.072L122.96 210.153Z" fill="#76AB9F"/>
<path d="M92.6425 301.407C99.5068 300.998 106.78 299.364 113.889 297.485C130.233 293.074 158.017 298.956 151.071 285.966C144.533 273.794 88.9652 279.349 79.5676 267.83C77.5247 265.298 78.2602 260.804 77.9333 257.128C76.2172 238.338 83.7353 197.328 90.7631 195.285C99.0165 192.834 101.958 203.21 123.042 210.235C142.736 216.853 168.068 255.984 175.341 235.397C181.47 218.078 99.1799 189.485 99.7519 176.741C100.324 163.996 128.925 120.861 136.934 122.332C144.942 123.802 148.864 142.674 170.193 153.213C195.443 165.63 207.701 197.736 215.873 188.831C224.045 179.927 210.97 165.548 199.366 152.967C188.497 141.203 153.522 107.137 159.242 98.6405C164.963 90.1442 200.02 66.2077 205.985 68.005C211.95 69.8023 220.694 86.3046 228.212 96.6798C237.446 109.424 234.096 139.324 245.455 136.22C256.813 133.116 250.113 116.94 245.046 104.768C240.306 93.412 222.002 65.2273 229.029 57.9565C236.057 50.7674 268.499 42.5162 273.647 44.2318C278.795 45.9474 276.998 84.2622 283.535 79.1971C289.419 74.6222 283.535 56.9762 282.881 42.3528C298.653 39.4935 312.136 38.6766 320.798 40.3922C323.413 40.8823 326.192 42.1078 328.97 43.7416C298.98 87.2849 260.082 176.659 243.984 218.241C227.232 261.621 227.64 274.039 195.362 348.136C195.362 348.136 162.593 354.508 139.712 345.032C126.8 339.721 106.616 324.608 92.806 301.488L92.6425 301.407Z" fill="#609790"/>
<path d="M321.615 59.6717C321.615 59.6717 306.334 85.7323 287.294 126.988C277.733 147.575 267.355 171.92 257.385 198.389C247.579 224.858 237.609 253.778 226.741 282.126C221.348 296.341 215.709 310.556 209.989 324.444C204.269 338.332 198.303 351.894 192.338 364.965C186.291 377.954 180.244 390.453 174.196 402.136C171.091 407.936 168.068 413.573 165.126 419.047C162.02 424.438 158.997 429.667 156.137 434.65C150.09 444.535 144.533 453.522 139.058 461.201C133.828 469.044 128.598 475.498 124.512 480.889C120.344 486.281 116.585 490.203 114.297 492.98C111.927 495.758 110.62 497.228 110.62 497.228C107.596 500.741 102.285 501.068 98.771 498.045C95.2571 495.023 94.9302 489.712 97.9537 486.2L98.3624 485.791C98.3624 485.791 99.5882 484.402 101.876 481.87C104.083 479.256 107.678 475.661 111.682 470.596C115.687 465.531 120.753 459.485 125.901 451.97C131.295 444.699 136.851 436.039 142.817 426.562C145.677 421.742 148.701 416.759 151.806 411.531C154.748 406.22 157.853 400.747 160.958 395.11C167.087 383.754 173.216 371.582 179.345 358.838C185.392 346.093 191.521 332.777 197.404 319.134C203.288 305.491 209.09 291.521 214.728 277.47C226.169 249.367 236.139 220.937 246.925 194.304C257.712 167.754 268.826 143.49 278.959 122.985C299.225 81.9743 315.323 55.9137 315.323 55.9137C316.385 54.1981 318.673 53.6262 320.389 54.6883C322.106 55.7503 322.678 57.9561 321.615 59.6717Z" fill="#569188"/>
<path d="M1620.11 172.656L1624.2 169.96C1633.84 184.338 1642.34 193.897 1649.53 198.227L1647 202.393C1639.15 197.655 1630.08 187.688 1620.11 172.656Z" fill="#569188"/>
<path d="M1620.11 240.626C1620.76 239.319 1621.58 237.767 1622.48 236.051C1625.99 229.515 1630.73 220.611 1630.98 212.523L1635.88 212.686C1635.56 221.918 1630.49 231.394 1626.81 238.338C1625.91 239.972 1625.18 241.443 1624.52 242.75L1620.11 240.626Z" fill="#569188"/>
<path d="M1597.23 177.312C1603.44 164.323 1611.12 145.288 1606.55 130.093L1611.28 128.704C1616.35 145.533 1608.26 165.793 1601.64 179.436L1597.23 177.312Z" fill="#569188"/>
<path d="M1598.46 107.3L1602.21 104.196C1613.82 118.329 1631.63 129.603 1638.25 133.851C1639.56 134.668 1640.46 135.24 1640.95 135.648L1638.09 139.651C1637.6 139.325 1636.78 138.753 1635.56 138.017C1628.69 133.688 1610.47 122.169 1598.29 107.382L1598.46 107.3Z" fill="#569188"/>
<path d="M1571.9 115.225C1579.99 108.036 1589.63 91.9419 1589.63 82.6287L1589.63 82.4653L1594.53 82.4653C1594.53 82.4653 1594.53 82.4653 1594.53 82.6287C1594.53 94.3928 1583.26 111.63 1575.17 118.819L1571.9 115.143L1571.9 115.225Z" fill="#569188"/>
<path d="M1567.4 24.7069L1571.32 21.7659C1580.72 34.5919 1599.93 44.2319 1605.65 46.9278L1603.6 51.3393C1597.64 48.5617 1577.54 38.4316 1567.4 24.7069Z" fill="#569188"/>
<path d="M1554 45.7028C1554.65 42.3533 1555.64 39.0855 1556.62 35.5726C1559.15 26.8313 1561.76 17.7632 1559.72 7.30627L1564.54 6.32593C1566.83 17.9266 1563.97 27.975 1561.36 36.8797C1560.37 40.3109 1559.48 43.497 1558.82 46.6014L1554 45.7028Z" fill="#569188"/>
<path d="M1504.32 -125.121L1508.81 -127C1515.27 -111.56 1522.21 -95.1391 1529.49 -78.0649C1578.68 37.7781 1639.8 182.051 1650.35 290.378L1645.44 290.868C1634.98 183.195 1574.02 39.412 1524.99 -76.1859C1517.72 -93.2601 1510.77 -109.681 1504.32 -125.121Z" fill="#569188"/>
<path d="M1719.4 139.488C1717.35 142.347 1698.4 134.014 1665.55 115.388C1635.72 98.5588 1612.35 75.6026 1598.29 44.3953C1627.46 51.0942 1649.94 68.1684 1673.72 87.8568C1695.7 106.075 1721.44 136.629 1719.48 139.488L1719.4 139.488Z" fill="#609790"/>
<path d="M1560.13 316.439C1557.11 315.867 1557.92 283.189 1563.07 246.508C1567.73 213.258 1579.74 195.612 1601.32 170.205C1604.91 198.635 1597.72 225.594 1588.73 254.759C1580.48 281.718 1563.15 317.092 1560.13 316.52L1560.13 316.439Z" fill="#76AB9F"/>
<path d="M1638.66 31.4058C1623.62 25.3604 1587.01 5.10013 1583.34 -11.729C1603.85 -24.1466 1630.49 -3.6412 1646.42 8.44961C1666.69 23.8082 1696.11 33.775 1714.58 50.9309C1692.59 51.8295 1658.44 39.3302 1638.66 31.4058Z" fill="#76AB9F"/>
<path d="M1676.74 255.331C1664.73 244.384 1637.68 212.523 1640.21 195.449C1663.75 191.037 1681.48 219.63 1692.1 236.541C1705.67 258.027 1729.69 277.797 1740.89 300.344C1720.05 293.482 1692.43 269.709 1676.74 255.331Z" fill="#76AB9F"/>
<path d="M1668.16 336.372C1667.92 318.562 1655.58 270.444 1644.95 266.686C1637.76 272.078 1636.86 303.122 1640.54 329.428C1644.22 355.407 1644.46 390.535 1655.58 413.573C1665.87 388.738 1668.57 359.818 1668.16 336.372Z" fill="#609790"/>
<path d="M1517.39 101.826C1520.99 84.5069 1540.44 41.3721 1558.17 39.4932C1575.82 66.1256 1554.16 97.1696 1544.11 114.652C1531.28 136.873 1526.22 170.94 1511.1 190.71C1505.79 164.078 1512.73 124.701 1517.47 101.908L1517.39 101.826Z" fill="#609790"/>
<path d="M1547.79 176.25C1538.8 186.707 1526.95 196.674 1517.72 207.376C1509.96 216.281 1499.41 231.639 1487.48 233.927C1493.53 214.32 1504.81 189.485 1515.18 171.348C1529.08 147.003 1552.94 125.599 1576.88 110.568C1572.63 134.014 1564.79 156.562 1547.79 176.332L1547.79 176.25Z" fill="#76AB9F"/>
<path d="M1528.26 -23.4929C1527.85 1.34226 1521.64 26.0141 1511.43 49.4604C1505.95 62.0414 1498.43 73.9688 1493.61 86.9583C1490.51 95.3728 1489.12 105.258 1484.46 112.61C1473.35 63.4302 1496.31 11.0639 1528.26 -23.4929Z" fill="#76AB9F"/>
<path d="M1626.08 233.927C1625.26 258.762 1618.56 283.27 1607.93 306.553C1602.21 319.053 1594.53 330.817 1589.47 343.724C1586.2 352.139 1584.64 361.942 1579.91 369.213C1569.69 319.87 1593.55 267.912 1626.08 233.927Z" fill="#609790"/>
<path d="M1633.1 134.341C1659.09 138.18 1683.93 148.066 1706.98 161.872C1719.32 169.306 1730.59 178.701 1743.5 185.482C1751.84 189.893 1761.97 192.671 1769 198.471C1715.8 203.209 1667.1 168.898 1633.1 134.341Z" fill="#76AB9F"/>
<path d="M929.023 219.549C918.972 213.013 899.932 198.553 905.57 189.812C911.291 181.07 931.557 196.511 935.724 206.478C932.864 196.674 924.774 170.042 934.417 166.774C944.059 163.506 948.881 181.479 949.698 192.753C953.294 182.051 969.31 171.921 976.011 177.231C981.976 181.969 971.19 202.965 961.547 210.072C967.267 205.661 993.744 205.334 996.522 213.176C1001.34 226.656 976.42 230.087 967.431 226.82C973.805 229.679 983.856 242.913 981.486 249.857C979.116 256.801 960.566 240.789 956.644 236.051C960.158 243.649 961.384 267.34 951.414 268.892C941.444 270.444 941.526 245.119 944.141 237.521C941.281 242.995 928.206 266.932 917.991 262.683C907.777 258.517 924.284 233.6 928.451 228.535C922.813 231.558 899.196 240.381 896.009 232.947C892.904 225.512 921.75 215.219 928.942 219.549L929.023 219.549Z" fill="#EBDFE1"/>
<path d="M934.335 219.548C934.744 226.247 940.464 231.149 946.92 230.495C953.375 229.842 958.524 225.676 958.115 218.977C957.706 212.278 953.294 209.337 946.92 208.356C940.873 207.458 933.927 212.849 934.335 219.548Z" fill="#FFA64D"/>
<path d="M1694.47 717.643C1694.88 716.662 1732.72 619.037 1715.07 489.714L1722.58 488.652C1740.48 620.099 1701.91 719.44 1701.5 720.42L1694.39 717.643L1694.47 717.643Z" fill="#76AB9F"/>
<path d="M1700.52 716.499C1684.99 711.352 1630.98 741.497 1641.85 758.817C1652.63 776.136 1667.59 764.699 1667.59 764.699C1667.59 764.699 1660.64 784.959 1677.31 790.841C1693.9 796.723 1698.72 774.666 1698.72 774.666C1698.72 774.666 1702.32 790.024 1716.95 788.88C1731.57 787.737 1725.61 724.832 1700.52 716.581L1700.52 716.499Z" fill="#FFEBAB"/>
<path d="M1679.76 719.685C1690.63 725.975 1702.32 728.589 1714.49 729.406C1714.49 729.406 1707.96 717.071 1700.28 715.028C1692.59 712.986 1679.76 719.766 1679.76 719.766L1679.76 719.685Z" fill="#76AB9F"/>
<path d="M1597.31 723.606C1597.88 722.789 1657.95 638.562 1717.84 524.434L1724.79 528.11C1664.56 642.81 1604.26 727.364 1603.69 728.181L1597.31 723.606Z" fill="#76AB9F"/>
<path d="M1600.5 722.217C1615.86 730.304 1633.76 791.33 1612.92 795.088C1592.08 798.846 1589.47 779.811 1589.47 779.811C1589.47 779.811 1579.74 798.846 1562.99 790.432C1546.24 782.017 1558.99 763.309 1558.99 763.309C1558.99 763.309 1545.09 771.152 1535.04 759.388C1524.99 747.624 1575.74 709.064 1600.5 722.135L1600.5 722.217Z" fill="#EBDFE1"/>
<path d="M1613.57 739.945C1600.91 736.106 1590.28 729.162 1580.64 720.665C1580.64 720.665 1594.53 717.071 1601.81 721.401C1609.08 725.73 1613.57 739.945 1613.57 739.945Z" fill="#76AB9F"/>
<path d="M5.36755 593.711L6.26645 585.296C151.07 600.083 258.447 554.334 259.51 553.844L262.942 561.605C261.88 562.095 152.541 608.743 5.44934 593.711L5.36755 593.711Z" fill="#76AB9F"/>
<path d="M258.366 560.706C252.074 543.55 283.617 482.361 303.392 493.798C323.086 505.235 310.829 522.228 310.829 522.228C310.829 522.228 333.138 513.731 340.329 532.031C347.52 550.331 323.086 556.539 323.086 556.539C323.086 556.539 340.329 559.97 339.593 576.309C338.858 592.648 268.581 588.319 258.448 560.706L258.366 560.706Z" fill="#FFEBAB"/>
<path d="M261.144 537.423C268.581 549.269 271.85 562.258 273.239 575.656C273.239 575.656 259.265 568.876 256.65 560.379C254.035 551.883 261.144 537.342 261.144 537.342L261.144 537.423Z" fill="#76AB9F"/>
</g>
</svg>
