<svg width="1714" height="798" viewBox="0 0 1714 798" fill="none" xmlns="http://www.w3.org/2000/svg">
<mask id="mask0_1_1214" style="mask-type:alpha" maskUnits="userSpaceOnUse" x="0" y="0" width="1714" height="798">
<path d="M1714 0H0V798H1714V0Z" fill="#CADB7F"/>
</mask>
<g mask="url(#mask0_1_1214)">
<path d="M194.187 836.838C209.031 817.243 207.555 761.981 228.551 777.314C246.101 790.104 184.838 873.159 193.859 885.212C202.963 897.264 259.715 920.303 266.604 913.58C273.494 906.857 264.636 885.704 278.496 861.189C294.899 832.247 285.385 792.564 299.328 795.843C313.27 799.123 310.071 821.916 307.201 841.921C304.494 860.697 293.095 917.434 304.33 921.861C315.566 926.289 365.922 926.289 370.515 920.549C375.107 914.81 372.647 892.837 373.057 877.669C373.549 858.975 350.257 832.083 363.462 827.491C376.666 822.982 380.93 843.315 384.129 858.565C387.081 872.832 388.065 912.678 399.793 915.056C411.521 917.434 448.755 903.742 452.609 898.576C456.464 893.411 429.072 857.171 438.831 857.745C447.689 858.319 453.758 879.391 462.861 894.231C480.166 886.524 493.862 878.325 501.243 870.782C511.003 860.779 515.185 838.314 515.513 811.339C502.555 815.521 464.583 826.753 455.808 816.177C446.048 804.37 511.823 799.697 515.103 790.35C518.384 781.003 516.661 749.191 508.788 735.991C504.934 729.514 481.806 729.924 457.448 738.942C431.86 748.453 404.714 766.573 391.592 757.964C364.938 740.582 435.141 733.859 469.012 722.38C485.661 716.723 500.095 711.394 501.407 702.293C502.719 693.192 495.338 681.878 491.976 673.761C488.203 664.66 478.362 643.67 469.258 638.423C460.155 633.176 428.58 650.558 399.629 669.661C358.459 696.8 351.242 725.742 334.183 720.413C317.124 715.165 344.271 667.038 373.959 648.508C398.317 633.258 443.998 615.876 438.995 606.447C433.993 597.018 397.005 564.469 371.335 559.877C345.665 555.368 306.955 676.466 290.634 668.513C273.247 659.986 309.169 613.416 318.436 590.213C324.669 574.635 333.035 555.122 330.82 546.021C328.524 536.92 291.536 536.674 278.988 545.037C266.522 553.4 261.274 634.816 239.704 632.356C215.264 629.486 241.755 591.279 246.019 573.569C247.742 566.272 247.66 558.893 246.921 552.58C236.67 556.187 226.746 560.779 217.725 566.764C177.128 593.329 172.864 653.673 172.864 653.673C172.864 653.673 136.532 669.333 120.458 693.93C111.354 707.786 101.759 735.991 103.727 767.885C110.698 763.703 118.899 760.424 127.183 757.554C146.128 750.913 169.337 726.644 171.224 743.944C172.946 760.26 114.963 791.908 113.487 809.535C113.159 813.389 116.931 817.324 119.063 821.096C129.971 840.692 164.745 875.701 172.946 872.996C182.623 869.798 178.605 857.745 194.515 836.838L194.187 836.838Z" fill="#76AB9F"/>
<path d="M103.481 767.967C110.452 763.785 118.653 760.506 126.937 757.636C145.882 750.995 169.091 726.726 170.978 744.026C172.7 760.342 114.717 791.99 113.241 809.617C112.913 813.471 116.685 817.406 118.817 821.178C129.725 840.774 164.499 875.783 172.7 873.077C182.377 869.88 178.359 857.827 194.269 836.92C209.113 817.324 207.637 762.064 228.633 777.396C246.183 790.186 184.92 873.241 193.941 885.294C203.045 897.346 259.797 920.385 266.686 913.662C273.576 906.939 264.718 885.786 278.578 861.271C294.981 832.328 285.467 792.645 299.41 795.925C313.352 799.205 310.153 821.998 307.283 842.003C304.576 860.779 293.177 917.516 304.412 921.943C315.648 926.371 366.004 926.371 370.597 920.631C375.189 914.892 372.729 892.919 373.139 877.751C373.631 859.057 350.339 832.165 363.544 827.573C376.748 823.064 381.012 843.397 384.211 858.647C387.163 872.914 388.147 912.76 399.875 915.138C411.603 917.516 448.837 903.823 452.692 898.658C456.546 893.493 429.154 857.253 438.913 857.827C447.771 858.401 453.84 879.473 462.943 894.313C480.248 886.606 493.944 878.407 501.325 870.864C503.539 868.568 505.426 865.616 507.066 862.091C448.591 839.544 350.75 778.133 307.283 748.289C261.848 717.133 253.974 704.671 172.864 653.837C172.864 653.837 136.532 669.497 120.458 694.094C111.354 707.95 101.759 736.155 103.727 768.049L103.481 767.967Z" fill="#609790"/>
<path d="M485.661 858.483C485.661 858.483 452.528 843.725 405.37 817.079C381.751 803.796 354.768 787.398 326.474 768.623C298.18 749.765 269.311 728.612 239.458 708.688C224.614 698.685 209.524 688.929 194.679 679.418C179.753 669.989 164.909 661.052 150.474 652.607C135.958 644.244 121.77 636.455 108.156 629.404C101.267 625.961 94.6238 622.681 88.2268 619.401C81.6658 616.368 75.3508 613.498 69.3638 610.71C57.1439 605.463 45.9083 600.626 35.7387 597.1C25.6511 593.165 16.6297 590.623 9.33053 588.327C1.9494 586.032 -3.95557 584.884 -7.89218 583.818C-11.9108 582.834 -14.0432 582.342 -14.0432 582.342L-14.6172 582.178C-19.1279 581.03 -21.8343 576.521 -20.7681 572.011C-19.62 567.502 -15.1093 564.796 -10.5986 565.862L-10.5165 565.862C-10.5165 565.862 -8.30222 566.436 -4.11954 567.502C0.0631102 568.732 6.29605 569.962 13.9232 572.503C21.5504 575.045 30.8999 577.833 41.2335 582.014C51.7311 585.786 63.2129 590.951 75.6789 596.444C81.8298 599.396 88.2268 602.43 94.8698 605.627C101.431 608.989 108.156 612.514 115.045 616.04C128.741 623.419 143.093 631.536 157.692 640.145C172.208 648.918 187.134 658.183 201.978 667.857C216.823 677.614 231.831 687.617 246.675 697.948C276.364 718.363 305.479 739.926 332.789 759.194C360.345 778.379 386.835 795.187 409.963 808.88C456.218 836.346 488.613 851.596 488.613 851.596C490.499 852.498 491.238 854.63 490.417 856.516C489.597 858.319 487.383 859.139 485.579 858.319L485.661 858.483Z" fill="#569188"/>
<path d="M1042.36 825.113C1055.16 813.307 1063.19 803.386 1066.39 795.515L1070.99 797.319C1067.54 805.846 1059.01 816.422 1045.73 828.721L1042.36 825.113Z" fill="#569188"/>
<path d="M766.308 986.469C780.66 977.614 795.751 968.103 811.579 958.265C918.688 891.197 1051.96 807.732 1157.67 780.101L1158.9 784.857C1053.84 812.241 920.902 895.543 814.122 962.364C798.375 972.285 783.203 981.714 768.85 990.569L766.226 986.387L766.308 986.469Z" fill="#569188"/>
<path d="M997.174 735.663C1000.37 737.221 995.042 757.308 981.838 792.892C969.864 825.113 950.837 851.924 922.132 870.782C924.101 840.855 937.551 815.849 953.297 789.202C967.896 764.523 994.058 734.187 997.256 735.663L997.174 735.663Z" fill="#609790"/>
<path d="M902.86 832.738C899.251 848.644 884.981 888.081 868.824 894.395C853.242 876.029 869.398 846.431 878.83 828.721C890.886 806.174 896.053 775.51 910.159 754.438C914.505 776.083 907.534 811.831 902.86 832.738Z" fill="#76AB9F"/>
<path d="M1118.72 759.521C1109.78 773.132 1082.47 804.944 1065.16 805.19C1057.04 782.561 1082.63 760.505 1097.72 747.223C1116.91 730.415 1132.66 703.441 1153.24 688.765C1149.72 710.574 1130.53 741.566 1118.8 759.521L1118.72 759.521Z" fill="#76AB9F"/>
<path d="M1200.4 755.258C1182.77 758.374 1137.01 778.133 1135.04 789.284C1141.52 795.597 1172.44 791.498 1197.86 783.709C1223.04 776.002 1257.81 770.18 1278.89 755.504C1252.64 749.273 1223.53 751.159 1200.4 755.258Z" fill="#609790"/>
<path d="M1005.7 821.998C1005.38 795.597 1011.2 769.442 1021.29 744.435C1026.7 730.989 1034.24 718.363 1038.92 704.507C1041.95 695.488 1043.1 685.075 1047.78 677.204C1060.9 729.186 1034.65 782.889 1005.79 821.998L1005.7 821.998Z" fill="#76AB9F"/>
<path d="M1296.85 888.655C1379.76 813.307 1525.66 657.609 1571.18 461.735L1575.86 462.801C1530.09 659.986 1383.45 816.504 1300.13 892.181L1296.93 888.655L1296.85 888.655Z" fill="#569188"/>
<path d="M1549.69 534.46C1554.37 530.853 1558.39 526.753 1562.65 522.49C1565.6 519.538 1568.56 516.586 1571.67 513.717L1574.87 517.324C1571.76 520.112 1568.89 522.981 1566.01 525.851C1561.83 530.115 1557.49 534.46 1552.56 538.314L1549.61 534.542L1549.69 534.46Z" fill="#569188"/>
<path d="M1530.34 540.609C1530.34 537.74 1530.59 535.034 1531.24 532.656L1535.92 533.886C1534.19 540.363 1535.92 550.53 1537.31 559.549C1538.05 564.222 1538.79 568.568 1538.95 572.093L1534.11 572.339C1533.95 569.06 1533.29 564.796 1532.55 560.287C1531.49 553.81 1530.34 546.759 1530.34 540.609Z" fill="#569188"/>
<path d="M1516.32 610.136C1524.02 604.725 1532.64 599.232 1538.54 600.134L1537.8 604.889C1533.05 604.151 1522.55 611.612 1519.1 614.072L1516.32 610.136Z" fill="#569188"/>
<path d="M1533.05 574.635C1537.06 568.65 1542.64 565.124 1547.97 561.763C1550.51 560.123 1553.14 558.483 1555.6 556.515L1558.55 560.287C1555.93 562.337 1553.14 564.14 1550.51 565.78C1545.35 569.06 1540.51 572.093 1537.06 577.259L1533.05 574.553L1533.05 574.635Z" fill="#569188"/>
<path d="M1509.02 581.276L1513.69 580.21C1516.23 591.689 1518.61 608.251 1515.25 621.615L1510.57 620.467C1513.69 608.005 1511.48 592.263 1509.02 581.276Z" fill="#569188"/>
<path d="M1473.34 645.31L1477.77 643.425C1482.85 655.559 1482.69 666.218 1481.95 677.86L1477.11 677.532C1477.85 666.463 1478.02 656.379 1473.34 645.31Z" fill="#569188"/>
<path d="M1458.5 706.31C1459.07 701.965 1484.25 689.83 1484.49 689.666C1490.56 687.371 1496.71 685.239 1502.78 683.107C1508.93 680.976 1515.08 678.762 1521.15 676.548L1522.88 681.058C1516.81 683.353 1510.66 685.485 1504.42 687.699C1498.35 689.831 1492.29 691.962 1486.22 694.258C1481.95 695.898 1464.73 705.736 1463.01 707.786L1461.28 706.474L1459.56 708.852L1458.5 706.392L1458.5 706.31ZM1463.25 706.392C1463.25 705.819 1462.84 705.245 1462.35 704.917L1461.37 706.31L1463.25 706.474L1463.25 706.392Z" fill="#569188"/>
<path d="M1394.69 787.972C1399.12 784.282 1405.35 747.387 1402.89 724.676L1407.65 724.184C1409.86 745.091 1404.86 785.676 1397.81 791.662L1394.69 787.972Z" fill="#569188"/>
<path d="M1412.82 767.147C1426.43 760.178 1447.01 756.98 1463.99 759.112L1463.42 763.867C1447.59 761.817 1427.74 764.933 1415.03 771.41L1412.82 767.147Z" fill="#569188"/>
<path d="M1588.49 301.199C1591.93 301.363 1596.61 334.815 1596.69 376.63C1596.69 414.509 1595.79 436.974 1568.31 481.823C1572.25 448.371 1563.55 419.429 1568.97 385.403C1573.97 354.001 1585.04 300.954 1588.57 301.118L1588.49 301.199Z" fill="#609790"/>
<path d="M1364.18 639.571C1368.53 639.735 1372.22 664.906 1374.6 711.23C1376.73 753.209 1368.2 792.482 1344.99 827.491C1332.77 792.891 1335.72 758.374 1340.56 720.822C1345.07 686.059 1359.83 639.407 1364.18 639.571Z" fill="#609790"/>
<path d="M1639.74 618.5C1641.3 621.041 1617.19 642.031 1587.17 662.528C1560.03 681.058 1539.28 684.009 1506.72 685.157C1524.93 663.84 1549.2 651.213 1576.18 638.505C1601.12 626.699 1638.19 615.958 1639.74 618.5Z" fill="#76AB9F"/>
<path d="M1532.72 473.706C1537.31 488.874 1544.2 529.213 1533.62 542.413C1511.56 534.378 1510.98 501.5 1510.41 481.905C1509.75 456.98 1499.34 428.448 1501.14 403.851C1515.25 420.085 1526.65 453.783 1532.72 473.788L1532.72 473.706Z" fill="#76AB9F"/>
<path d="M1587.09 612.35C1573.72 615.056 1539.36 617.187 1530.67 606.037C1541.58 586.605 1568.64 589.475 1584.8 591.033C1605.3 593.001 1630.72 586.442 1650.57 590.623C1634.5 601.938 1604.73 608.907 1587.17 612.432L1587.09 612.35Z" fill="#76AB9F"/>
<path d="M1518.45 747.961C1504.75 756.488 1463.34 771.246 1449.88 761.571C1455.05 734.269 1490.15 728.284 1508.44 723.692C1531.65 717.789 1557.32 699.833 1580.61 696.882C1566.92 716.641 1536.57 736.729 1518.45 747.961Z" fill="#609790"/>
<path d="M1600.79 461.899C1610.55 452.553 1622.93 444.026 1633.02 434.433C1641.38 426.48 1653.19 412.378 1664.92 411.64C1656.97 430.579 1643.44 454.11 1631.46 471C1615.47 493.711 1590.04 510.519 1565.44 522.572C1572.08 499.533 1582.34 479.527 1600.79 461.817L1600.79 461.899Z" fill="#76AB9F"/>
<path d="M1459.73 789.612C1474.82 788.956 1491.71 790.842 1507.21 790.186C1520.17 789.694 1540.26 786.66 1551.25 794.367C1531.24 804.206 1503.11 813.799 1480.97 819.046C1451.2 826.179 1416.1 823.228 1385.91 815.521C1407.57 801.418 1431.27 790.842 1459.81 789.53L1459.73 789.612Z" fill="#76AB9F"/>
<path d="M1449.39 599.068C1447.01 587.426 1446.6 574.307 1444.23 562.419C1442.26 552.416 1437.34 536.92 1442.42 528.393C1453 543.643 1464.32 565.206 1471.37 582.26C1480.89 605.135 1482.69 632.274 1479.82 655.723C1465.47 639.243 1453.9 621.123 1449.39 599.15L1449.39 599.068Z" fill="#76AB9F"/>
<path d="M1548.46 563.566C1565.6 546.267 1586.76 533.23 1609.89 523.555C1622.28 518.39 1635.64 515.11 1647.95 509.207C1655.9 505.354 1663.53 499.369 1671.81 497.319C1646.22 539.544 1594.39 560.861 1548.46 563.485L1548.46 563.566Z" fill="#609790"/>
<path d="M1405.52 735.499C1396.58 711.394 1393.38 685.403 1394.36 659.166C1394.85 645.064 1397.64 630.962 1397.4 616.696C1397.23 607.431 1394.85 597.428 1396.58 588.737C1425.69 632.192 1419.21 690.159 1405.52 735.581L1405.52 735.499Z" fill="#76AB9F"/>
<path d="M1512.79 586.196C1520.01 568.404 1497.29 541.183 1486.95 527.901C1473.67 510.765 1455.63 503.222 1442.5 485.594C1436.76 501.664 1460.71 528.885 1469.9 541.265C1481.46 556.843 1500.08 574.635 1512.79 586.196Z" fill="#609790"/>
<path d="M600.397 720.33C607.778 714.591 623.36 704.178 628.363 710.655C633.366 717.132 616.799 728.119 608.352 728.693C616.307 729.103 638.041 729.923 638.041 737.876C638.041 745.829 623.524 744.763 614.995 742.467C621.966 747.878 625.411 762.308 619.752 765.916C614.749 769.114 602.037 755.749 599.166 746.813C600.971 752.142 594.41 771.737 587.931 771.819C576.777 771.819 580.632 752.634 585.306 746.813C581.616 750.748 569.232 754.766 564.721 751.24C560.21 747.714 576.777 738.122 581.288 736.482C574.809 737.138 556.93 731.972 558.406 724.183C559.8 716.476 578.499 722.954 583.42 726.889C580.058 723.364 565.787 707.621 571.528 701.144C577.269 694.667 591.375 713.279 594.082 717.624C593.261 712.705 592.851 693.027 599.084 692.618C605.317 692.208 605.563 716.148 600.561 720.33L600.397 720.33Z" fill="#EBDFE1"/>
<path d="M599.085 724.183C594.082 722.79 588.997 725.741 587.767 730.661C586.619 735.58 588.341 740.499 593.426 741.893C598.429 743.287 601.791 740.827 604.087 736.318C606.302 732.137 604.087 725.577 599.085 724.183Z" fill="#FFA64D"/>
<path d="M1265.85 680.975C1258.39 691.142 1242.39 710.081 1234.85 702.784C1227.3 695.487 1244.44 675.236 1254.37 671.956C1244.77 673.842 1218.69 679.335 1216.72 668.431C1214.84 657.526 1232.39 654.492 1243.13 655.066C1233.45 649.737 1225.91 631.043 1231.81 624.402C1237.06 618.499 1255.43 632.929 1261.01 644.326C1257.57 637.521 1260.6 608.66 1268.31 606.61C1281.59 603.085 1281.68 630.634 1277.49 640.062C1280.94 633.503 1294.72 624.156 1300.95 627.6C1307.18 631.043 1289.8 649.327 1284.79 652.935C1292.34 649.983 1314.97 651.705 1315.14 662.773C1315.3 673.842 1291.44 670.644 1284.63 666.709C1289.47 670.48 1310.38 687.698 1305.13 698.357C1299.88 709.015 1278.48 687.78 1274.21 682.697C1276.35 689.174 1281.68 716.067 1274.3 718.608C1266.91 721.068 1260.76 688.354 1265.77 681.057L1265.85 680.975Z" fill="#EBDFE1"/>
<path d="M1266.42 675.236C1273.56 675.646 1279.46 670.071 1279.63 662.938C1279.79 655.887 1276.02 649.655 1268.96 649.245C1261.83 648.836 1258.22 653.263 1256.33 660.068C1254.53 666.463 1259.37 674.826 1266.42 675.236Z" fill="#FFA64D"/>
<path d="M1.04682 496.006L3.17923 487.479C60.0961 501.582 112.994 508.223 113.568 508.305L112.502 516.996C112.01 516.996 58.6199 510.191 1.12891 496.006L1.04682 496.006Z" fill="#76AB9F"/>
<path d="M109.14 514.208C111.026 494.859 166.385 450.256 179.179 470.18C191.973 490.103 173.438 500.926 173.438 500.926C173.438 500.926 197.303 502.894 195.745 523.719C194.187 544.544 169.419 539.461 169.419 539.461C169.419 539.461 183.443 550.53 175.652 565.944C167.861 581.358 106.187 545.446 109.14 514.29L109.14 514.208Z" fill="#EBDFE1"/>
<path d="M121.934 493.055C123.41 507.813 120.704 521.751 116.029 535.361C116.029 535.361 106.352 522.489 107.746 513.224C109.14 503.877 121.934 493.137 121.934 493.137L121.934 493.055Z" fill="#76AB9F"/>
<path d="M1570.69 130.579L1578.07 126.234C1578.64 127.3 1638.1 230.607 1640.56 379.008L1632.04 379.172C1629.66 233.148 1571.35 131.645 1570.77 130.579L1570.69 130.579Z" fill="#76AB9F"/>
<path d="M1577.66 130.825C1561.34 139.106 1496.55 114.919 1505.65 93.93C1514.76 72.9406 1533.13 83.1074 1533.13 83.1074C1533.13 83.1074 1522.06 61.8721 1539.44 52.5253C1556.83 43.1785 1565.85 66.7914 1565.85 66.7914C1565.85 66.7914 1567.16 49.2457 1583.57 48.0159C1599.97 46.786 1603.99 117.379 1577.66 130.743L1577.66 130.825Z" fill="#EBDFE1"/>
<path d="M1554.12 130.825C1565.03 122.052 1577.58 117.215 1590.86 114.263C1590.86 114.263 1585.78 129.022 1577.58 132.547C1569.46 136.155 1554.12 130.825 1554.12 130.825Z" fill="#76AB9F"/>
</g>
</svg>
